<svg width="16" height="16" viewBox="0 0 16 16" fill="none" xmlns="http://www.w3.org/2000/svg">
<path d="M6.9905 11.1533C6.90299 11.1535 6.8163 11.1364 6.73542 11.103C6.65453 11.0696 6.58104 11.0205 6.51916 10.9586L3.69116 8.12997C3.62745 8.06852 3.57661 7.99499 3.54161 7.91368C3.50662 7.83237 3.48817 7.7449 3.48733 7.65638C3.4865 7.56787 3.50331 7.48007 3.53677 7.39811C3.57023 7.31616 3.61968 7.24169 3.68223 7.17905C3.74478 7.11641 3.81918 7.06686 3.90109 7.03328C3.983 6.9997 4.07077 6.98277 4.15929 6.98348C4.24781 6.98418 4.3353 7.00251 4.41666 7.03739C4.49802 7.07227 4.57162 7.12301 4.63316 7.18664L6.98983 9.5433L11.2332 5.3013C11.3582 5.17621 11.5277 5.1059 11.7046 5.10584C11.8814 5.10577 12.0511 5.17596 12.1762 5.30097C12.3013 5.42598 12.3716 5.59555 12.3716 5.7724C12.3717 5.94925 12.3015 6.11888 12.1765 6.24397L7.46183 10.9586C7.39995 11.0205 7.32646 11.0696 7.24557 11.103C7.16469 11.1364 7.07801 11.1535 6.9905 11.1533Z" fill="white"/>
</svg>
