<svg width="176" height="34" viewBox="0 0 176 34" fill="none" xmlns="http://www.w3.org/2000/svg">
<mask id="mask0_1441_1143" style="mask-type:alpha" maskUnits="userSpaceOnUse" x="0" y="0" width="35" height="34">
<ellipse cx="17.5257" cy="17" rx="17.2386" ry="17" fill="white"/>
</mask>
<g mask="url(#mask0_1441_1143)">
<path d="M32.9032 -2.32839C33.8738 -0.939493 34.7441 1.07716 35.5184 3.85957C34.9492 2.29674 34.3327 1.05744 33.6656 0.10291C32.6456 -1.35677 31.504 -2.15491 30.231 -2.41985C28.961 -2.68417 27.5766 -2.41427 26.0761 -1.7718C24.5754 -1.12922 22.9491 -0.109819 21.191 1.13763C19.7178 2.18295 18.1485 3.3911 16.4801 4.67548C16.1572 4.92405 15.8306 5.17547 15.5003 5.42911C13.4623 6.99405 11.2808 8.64498 8.94662 10.2384C8.28433 10.6905 7.6098 11.138 6.92288 11.5774C5.48171 11.5084 4.01954 11.4805 2.54463 11.5096C4.61911 10.3784 6.59028 9.13654 8.4623 7.85861C10.8013 6.26188 12.9864 4.60812 15.0249 3.04281C15.3558 2.78871 15.6828 2.53698 16.006 2.28821C17.6744 1.00386 19.24 -0.201395 20.7097 -1.24423C22.4643 -2.48922 24.0769 -3.49887 25.5579 -4.13301C27.0392 -4.76726 28.3793 -5.02175 29.5929 -4.76916C30.8036 -4.5172 31.9048 -3.75715 32.9032 -2.32839ZM33.5015 0.216338C34.3373 1.41237 35.0987 3.07392 35.7885 5.28911C35.9685 6.52914 36.0156 7.60034 35.9408 8.5228C35.8006 10.2525 35.2322 11.4537 34.3115 12.2688C33.3885 13.086 32.0989 13.5264 30.4946 13.7075C28.8904 13.8886 26.982 13.8093 24.8312 13.5963C23.0296 13.4179 21.0626 13.146 18.9665 12.8564C18.5606 12.8003 18.1498 12.7435 17.7345 12.6866C15.1755 12.3362 12.4446 11.9814 9.60937 11.7519C8.83591 11.6893 8.05461 11.636 7.2668 11.5947C7.87458 11.2027 8.47245 10.8048 9.06053 10.4033C11.3995 8.80661 13.5847 7.15285 15.6232 5.58753C15.954 5.33347 16.281 5.08176 16.6041 4.83303C18.2725 3.54864 19.8382 2.34336 21.3079 1.3005C23.0625 0.0555107 24.6751 -0.954141 26.1561 -1.58829C27.6374 -2.22253 28.9775 -2.47702 30.1911 -2.22443C31.4018 -1.97247 32.503 -1.21242 33.5015 0.216338ZM36.1405 8.54008C36.1922 7.90292 36.1867 7.19837 36.1211 6.42051C36.1422 6.49643 36.1632 6.57293 36.1842 6.64999C36.5185 8.38238 36.6255 9.82296 36.5288 11.0151C36.3885 12.7448 35.8202 13.946 34.8995 14.7611C33.9765 15.5783 32.6869 16.0187 31.0825 16.1998C29.4784 16.3809 27.5699 16.3016 25.4192 16.0886C23.6176 15.9102 21.6507 15.6384 19.5546 15.3487C19.1487 15.2926 18.7378 15.2358 18.3224 15.179C15.7634 14.8285 13.0326 14.4737 10.1973 14.2443C7.93495 14.0611 5.60538 13.9577 3.24252 13.9999C4.52712 13.2961 5.77201 12.5502 6.97817 11.7799C7.85848 11.8228 8.73115 11.8811 9.59435 11.9509C12.4237 12.18 15.15 12.5341 17.7084 12.8844C18.1231 12.9412 18.5336 12.998 18.9393 13.054C21.0353 13.3437 23.0068 13.6161 24.8126 13.795C26.9676 14.0084 28.8929 14.0893 30.5183 13.9059C32.1435 13.7224 33.4792 13.2735 34.4451 12.4184C35.4132 11.5613 35.9972 10.3072 36.1405 8.54008ZM36.7285 11.0324C36.7834 10.3549 36.7737 9.60127 36.6959 8.76433C37.0978 10.6901 37.2316 12.2703 37.127 13.5598C36.9867 15.2895 36.4184 16.4907 35.4977 17.3059C34.5747 18.123 33.2851 18.5634 31.6808 18.7445C30.0766 18.9256 28.1681 18.8464 26.0174 18.6333C24.2159 18.4549 22.2489 18.1831 20.1528 17.8934C19.7469 17.8373 19.3361 17.7806 18.9207 17.7237C16.3616 17.3732 13.6308 17.0185 10.7956 16.789C5.98251 16.3994 0.865418 16.3704 -4.22946 17.3371C-1.74324 16.4877 0.618091 15.4136 2.85968 14.2077C5.34672 14.1464 7.80063 14.2505 10.1823 14.4432C13.0117 14.6723 15.7379 15.0264 18.2963 15.3767C18.7111 15.4336 19.1215 15.4903 19.5272 15.5463C21.6232 15.836 23.5948 16.1084 25.4005 16.2873C27.5555 16.5007 29.4808 16.5817 31.1063 16.3982C32.7315 16.2147 34.0672 15.7659 35.0331 14.9107C36.0012 14.0536 36.5852 12.7995 36.7285 11.0324ZM6.63008 11.7638C5.39539 12.5455 4.12093 13.3003 2.80561 14.0093C0.282945 14.0737 -2.27516 14.3081 -4.8277 14.7924C-2.37956 13.956 -0.052507 12.9018 2.15837 11.7183C3.66373 11.6782 5.15719 11.699 6.63008 11.7638ZM-17.7852 16.7967C-20.311 16.8641 -22.8033 16.7598 -25.2212 16.5641C-28.0505 16.3351 -30.7768 15.981 -33.3352 15.6306C-33.7499 15.5738 -34.1602 15.5171 -34.5659 15.4611C-36.6619 15.1714 -38.6336 14.899 -40.4394 14.7201C-42.5944 14.5066 -44.5197 14.4257 -46.1451 14.6092C-47.7703 14.7926 -49.1061 15.2415 -50.0719 16.0966C-51.04 16.9538 -51.624 18.2079 -51.7673 19.975C-51.8224 20.654 -51.8125 21.4095 -51.7342 22.2486C-52.1286 20.3441 -52.2593 18.779 -52.1556 17.4999C-52.0153 15.7703 -51.447 14.5691 -50.5263 13.7539C-49.6033 12.9367 -48.3137 12.4964 -46.7093 12.3153C-45.1052 12.1342 -43.1967 12.2134 -41.046 12.4265C-39.2444 12.6049 -37.2774 12.8767 -35.1813 13.1664C-34.7754 13.2225 -34.3646 13.2792 -33.9493 13.3361C-31.3902 13.6866 -28.6594 14.0413 -25.8242 14.2708C-21.0111 14.6604 -15.894 14.6893 -10.7991 13.7226C-13.2473 14.5591 -15.5743 15.6133 -17.7852 16.7967ZM-5.41565 12.3001C-0.513231 10.6251 3.90363 8.07691 7.87433 5.3663C10.2133 3.76957 12.3985 2.11581 14.437 0.550496C14.7678 0.296433 15.0948 0.0447297 15.4179 -0.204006C17.0863 -1.48839 18.652 -2.69368 20.1217 -3.73654C21.8763 -4.98153 23.4889 -5.99118 24.9699 -6.62533C26.4512 -7.25957 27.7913 -7.51406 29.005 -7.26147C30.2156 -7.00951 31.3168 -6.24946 32.3153 -4.8207C33.2737 -3.44916 34.1343 -1.46546 34.9014 1.2633C34.3374 -0.275257 33.7271 -1.49781 33.0674 -2.44182C32.0474 -3.90149 30.9058 -4.69964 29.6327 -4.96458C28.3627 -5.2289 26.9784 -4.959 25.4779 -4.31652C23.9772 -3.67395 22.3509 -2.65455 20.5928 -1.4071C19.1197 -0.361816 17.5504 0.846273 15.8821 2.13059C15.5591 2.37921 15.2324 2.63068 14.902 2.88439C12.8641 4.44932 10.6826 6.10025 8.3484 7.69368C6.37697 9.03948 4.2973 10.3438 2.10432 11.52C-0.38161 11.5885 -2.90134 11.823 -5.41565 12.3001ZM-9.61293 18.7597C-14.5154 20.4347 -18.9322 22.9829 -22.9029 25.6935C-25.2419 27.2902 -27.4271 28.944 -29.4656 30.5093C-29.7964 30.7634 -30.1234 31.0151 -30.4466 31.2639C-32.1149 32.5482 -33.6806 33.7535 -35.1503 34.7963C-36.9049 36.0413 -38.5175 37.051 -39.9985 37.6851C-41.4798 38.3194 -42.8199 38.5738 -44.0335 38.3213C-45.2442 38.0693 -46.3454 37.3092 -47.3439 35.8805C-48.3144 34.4916 -49.1846 32.475 -49.959 29.6927C-49.3898 31.2554 -48.7733 32.4947 -48.1063 33.4492C-47.0862 34.9089 -45.9446 35.707 -44.6716 35.972C-43.4016 36.2363 -42.0172 35.9664 -40.5167 35.3239C-39.016 34.6813 -37.3897 33.6619 -35.6316 32.4145C-34.1585 31.3692 -32.5891 30.161 -30.9208 28.8767C-30.5979 28.6281 -30.2712 28.3767 -29.9409 28.123C-27.9029 26.5581 -25.7214 24.9071 -23.3872 23.3137C-21.4467 21.989 -19.4013 20.7045 -17.2462 19.5428C-14.7236 19.4784 -12.1655 19.244 -9.61293 18.7597ZM-17.7311 16.995C-15.2452 16.9266 -12.7255 16.692 -10.2112 16.215C-12.6974 17.0644 -15.0587 18.1385 -17.3003 19.3444C-18.7673 19.3805 -20.2228 19.3592 -21.6587 19.296C-20.3918 18.4939 -19.083 17.7201 -17.7311 16.995ZM-17.6831 19.5522C-19.7211 20.6688 -21.6591 21.8913 -23.5011 23.1488C-25.8402 24.7455 -28.0253 26.3993 -30.0638 27.9646C-30.3946 28.2186 -30.7216 28.4703 -31.0447 28.7191C-32.7131 30.0034 -34.2788 31.2087 -35.7485 32.2516C-37.5031 33.4966 -39.1157 34.5062 -40.5968 35.1404C-42.078 35.7746 -43.4181 36.0291 -44.6318 35.7765C-45.8424 35.5246 -46.9436 34.7645 -47.9421 33.3358C-48.9005 31.9642 -49.7611 29.9805 -50.5282 27.2517C-49.9642 28.7903 -49.3539 30.0128 -48.6942 30.9569C-47.6742 32.4166 -46.5326 33.2147 -45.2595 33.4796C-43.9895 33.744 -42.6052 33.4741 -41.1047 32.8316C-39.604 32.189 -37.9777 31.1696 -36.2196 29.9222C-34.7464 28.8769 -33.1771 27.6687 -31.5088 26.3844C-31.1858 26.1358 -30.8592 25.8844 -30.5289 25.6307C-28.4909 24.0657 -26.3094 22.4148 -23.9752 20.8214C-23.3129 20.3693 -22.6384 19.9218 -21.9515 19.4824C-20.5461 19.5497 -19.1208 19.5779 -17.6831 19.5522ZM-22.2954 19.4651C-22.9032 19.8571 -23.501 20.255 -24.0891 20.6565C-26.4281 22.2532 -28.6133 23.9069 -30.6517 25.4723C-30.9826 25.7263 -31.3096 25.978 -31.6327 26.2267C-33.3011 27.5111 -34.8667 28.7164 -36.3365 29.7593C-38.0911 31.0043 -39.7037 32.0139 -41.1847 32.6481C-42.666 33.2823 -44.0061 33.5368 -45.2197 33.2842C-46.4304 33.0323 -47.5316 32.2722 -48.53 30.8434C-49.3658 29.6474 -50.1272 27.9859 -50.8171 25.7707C-50.9971 24.5306 -51.0442 23.4594 -50.9694 22.537C-50.8291 20.8073 -50.2608 19.6061 -49.3401 18.791C-48.4171 17.9738 -47.1275 17.5334 -45.5232 17.3523C-43.919 17.1712 -42.0105 17.2505 -39.8598 17.4635C-38.0582 17.6419 -36.0912 17.9138 -33.9951 18.2034C-33.5892 18.2595 -33.1784 18.3163 -32.7631 18.3731C-30.204 18.7236 -27.4732 19.0784 -24.638 19.3078C-23.8645 19.3705 -23.0832 19.4237 -22.2954 19.4651ZM-22.0068 19.2798C-22.8871 19.2369 -23.7597 19.1787 -24.6229 19.1089C-27.4523 18.8798 -30.1786 18.5257 -32.737 18.1754C-33.1517 18.1186 -33.562 18.0619 -33.9677 18.0058C-36.0637 17.7161 -38.0354 17.4437 -39.8412 17.2648C-41.9962 17.0514 -43.9215 16.9704 -45.5469 17.1539C-47.1721 17.3374 -48.5078 17.7862 -49.4737 18.6414C-50.4418 19.4985 -51.0258 20.7526 -51.1691 22.5197C-51.2208 23.1569 -51.2153 23.8614 -51.1497 24.6393C-51.1709 24.563 -51.192 24.4861 -51.2131 24.4087C-51.5552 22.6534 -51.6653 21.1962 -51.5676 19.9923C-51.4274 18.2626 -50.859 17.0614 -49.9383 16.2462C-49.0153 15.4291 -47.7257 14.9887 -46.1214 14.8076C-44.5173 14.6265 -42.6088 14.7057 -40.458 14.9188C-38.6564 15.0972 -36.6894 15.369 -34.5933 15.6587C-34.1874 15.7148 -33.7766 15.7715 -33.3613 15.8284C-30.8023 16.1789 -28.0714 16.5336 -25.2362 16.7631C-22.9387 16.9491 -20.572 17.0529 -18.1714 17.0054C-19.4913 17.7252 -20.7694 18.4897 -22.0068 19.2798Z" stroke="white" stroke-width="0.2"/>
<path d="M33.1904 6.45481C34.161 7.8437 35.0312 9.86033 35.8055 12.6427C35.2363 11.0799 34.6198 9.84063 33.9528 8.88611C32.9327 7.42644 31.7911 6.62829 30.5181 6.36335C29.2481 6.09903 27.8637 6.36893 26.3632 7.01141C24.8625 7.65398 23.2362 8.67338 21.4781 9.92083C20.0049 10.9662 18.4356 12.1743 16.7672 13.4587C16.4443 13.7073 16.1177 13.9587 15.7874 14.2123C13.7494 15.7773 11.5679 17.4282 9.23374 19.0216C8.57144 19.4737 7.89692 19.9212 7.20999 20.3606C5.76882 20.2916 4.30666 20.2637 2.83174 20.2928C4.90622 19.1616 6.8774 17.9197 8.74941 16.6418C11.0884 15.0451 13.2736 13.3913 15.312 11.826C15.643 11.5719 15.97 11.3202 16.2931 11.0714C17.9615 9.78706 19.5271 8.58181 20.9968 7.53898C22.7514 6.29399 24.364 5.28434 25.845 4.65019C27.3263 4.01594 28.6664 3.76146 29.88 4.01405C31.0907 4.26601 32.1919 5.02605 33.1904 6.45481ZM33.7886 8.99954C34.6244 10.1956 35.3858 11.8571 36.0756 14.0723C36.2556 15.3123 36.3028 16.3835 36.228 17.306C36.0877 19.0357 35.5193 20.2369 34.5986 21.052C33.6756 21.8692 32.3861 22.3096 30.7817 22.4907C29.1776 22.6718 27.2691 22.5925 25.1183 22.3795C23.3167 22.2011 21.3497 21.9292 19.2536 21.6396C18.8477 21.5835 18.4369 21.5267 18.0216 21.4698C15.4626 21.1194 12.7317 20.7646 9.89649 20.5351C9.12303 20.4725 8.34172 20.4192 7.55392 20.3779C8.1617 19.9859 8.75956 19.588 9.34764 19.1865C11.6867 17.5898 13.8718 15.9361 15.9103 14.3707C16.2412 14.1166 16.5682 13.8649 16.8913 13.6161C18.5597 12.3318 20.1253 11.1265 21.595 10.0837C23.3496 8.83871 24.9622 7.82906 26.4433 7.19492C27.9245 6.56067 29.2646 6.30619 30.4783 6.55877C31.6889 6.81074 32.7901 7.57078 33.7886 8.99954ZM36.4277 17.3233C36.4793 16.6861 36.4738 15.9816 36.4082 15.2037C36.4293 15.2796 36.4504 15.3561 36.4713 15.4332C36.8056 17.1656 36.9126 18.6062 36.8159 19.7983C36.6757 21.528 36.1073 22.7292 35.1866 23.5443C34.2636 24.3615 32.974 24.8019 31.3697 24.983C29.7655 25.1641 27.857 25.0848 25.7063 24.8718C23.9048 24.6934 21.9378 24.4216 19.8418 24.1319C19.4358 24.0758 19.025 24.0191 18.6096 23.9622C16.0505 23.6117 13.3197 23.2569 10.4845 23.0275C8.22207 22.8443 5.8925 22.7409 3.52964 22.7831C4.81424 22.0793 6.05912 21.3334 7.26529 20.5631C8.14559 20.6061 9.01827 20.6643 9.88147 20.7341C12.7108 20.9632 15.4371 21.3173 17.9955 21.6676C18.4103 21.7244 18.8207 21.7812 19.2264 21.8372C21.3224 22.1269 23.2939 22.3993 25.0997 22.5782C27.2547 22.7916 29.18 22.8726 30.8054 22.6891C32.4306 22.5056 33.7664 22.0568 34.7322 21.2016C35.7003 20.3445 36.2844 19.0904 36.4277 17.3233ZM37.0156 19.8156C37.0706 19.1381 37.0608 18.3845 36.983 17.5475C37.385 19.4733 37.5187 21.0535 37.4141 22.343C37.2739 24.0727 36.7055 25.2739 35.7848 26.0891C34.8618 26.9062 33.5722 27.3466 31.9679 27.5277C30.3638 27.7088 28.4553 27.6296 26.3045 27.4165C24.503 27.2381 22.5361 26.9663 20.4401 26.6767C20.0341 26.6206 19.6232 26.5638 19.2078 26.5069C16.6488 26.1564 13.9179 25.8017 11.0827 25.5722C6.26963 25.1826 1.15253 25.1537 -3.94234 26.1203C-1.45612 25.2709 0.905208 24.1969 3.1468 22.9909C5.63383 22.9296 8.08775 23.0337 10.4694 23.2265C13.2988 23.4555 16.025 23.8096 18.5835 24.16C18.9982 24.2168 19.4086 24.2735 19.8143 24.3295C21.9103 24.6192 23.8819 24.8916 25.6877 25.0705C27.8427 25.2839 29.768 25.3649 31.3934 25.1814C33.0186 24.9979 34.3543 24.5491 35.3202 23.6939C36.2883 22.8368 36.8723 21.5827 37.0156 19.8156ZM6.91719 20.547C5.6825 21.3287 4.40805 22.0835 3.09272 22.7925C0.570063 22.8569 -1.98805 23.0913 -4.54058 23.5756C-2.09244 22.7392 0.234606 21.685 2.44548 20.5015C3.95084 20.4614 5.4443 20.4822 6.91719 20.547ZM-17.4981 25.5799C-20.0239 25.6473 -22.5162 25.543 -24.9341 25.3473C-27.7634 25.1183 -30.4897 24.7642 -33.0481 24.4138C-33.4628 24.357 -33.8731 24.3003 -34.2788 24.2443C-36.3749 23.9546 -38.3465 23.6822 -40.1523 23.5033C-42.3073 23.2898 -44.2326 23.2089 -45.858 23.3924C-47.4832 23.5758 -48.8189 24.0247 -49.7848 24.8798C-50.7529 25.737 -51.3369 26.9911 -51.4802 28.7582C-51.5353 29.4372 -51.5254 30.1927 -51.4471 31.0318C-51.8415 29.1273 -51.9722 27.5622 -51.8685 26.2831C-51.7282 24.5535 -51.1599 23.3523 -50.2392 22.5371C-49.3162 21.72 -48.0266 21.2796 -46.4222 21.0985C-44.8181 20.9174 -42.9096 20.9966 -40.7589 21.2097C-38.9573 21.3881 -36.9903 21.6599 -34.8942 21.9496C-34.4882 22.0057 -34.0775 22.0624 -33.6621 22.1193C-31.1031 22.4698 -28.3723 22.8245 -25.537 23.054C-20.724 23.4436 -15.6069 23.4725 -10.512 22.5058C-12.9602 23.3423 -15.2872 24.3965 -17.4981 25.5799ZM-5.12854 21.0833C-0.226114 19.4083 4.19074 16.8601 8.16145 14.1495C10.5005 12.5528 12.6856 10.899 14.7241 9.3337C15.0549 9.07964 15.3819 8.82793 15.705 8.5792C17.3734 7.29481 18.9391 6.08952 20.4088 5.04667C22.1634 3.80168 23.7761 2.79202 25.2571 2.15788C26.7383 1.52363 28.0784 1.26915 29.2921 1.52173C30.5027 1.7737 31.604 2.53374 32.6024 3.9625C33.5609 5.33404 34.4214 7.31775 35.1885 10.0465C34.6245 8.50795 34.0142 7.2854 33.3545 6.34138C32.3345 4.88171 31.1929 4.08356 29.9199 3.81862C28.6499 3.55431 27.2655 3.8242 25.765 4.46668C24.2643 5.10925 22.638 6.12866 20.8799 7.37611C19.4068 8.42139 17.8375 9.62948 16.1692 10.9138C15.8462 11.1624 15.5196 11.4139 15.1892 11.6676C13.1512 13.2325 10.9697 14.8835 8.63551 16.4769C6.66409 17.8227 4.58442 19.127 2.39143 20.3032C-0.0944928 20.3717 -2.61422 20.6062 -5.12854 21.0833ZM-47.0568 44.6637C-48.0273 43.2748 -48.8975 41.2582 -49.6719 38.4759C-49.1027 40.0386 -48.4862 41.2779 -47.8192 42.2324C-46.7991 43.6921 -45.6575 44.4902 -44.3845 44.7552C-43.1145 45.0195 -41.7301 44.7496 -40.2296 44.1071C-38.7289 43.4645 -37.1026 42.4451 -35.3445 41.1977C-33.8714 40.1524 -32.302 38.9442 -30.6337 37.6599C-30.3108 37.4113 -29.9841 37.1599 -29.6538 36.9062C-27.6158 35.3413 -25.4343 33.6903 -23.1001 32.0969C-21.1596 30.7722 -19.1142 29.4877 -16.9591 28.326C-14.4365 28.2616 -11.8784 28.0272 -9.32582 27.5429C-14.2282 29.2179 -18.6451 31.7661 -22.6158 34.4767C-24.9548 36.0734 -27.14 37.7272 -29.1784 39.2925C-29.5093 39.5466 -29.8363 39.7983 -30.1594 40.0471C-31.8278 41.3314 -33.3935 42.5367 -34.8632 43.5795C-36.6178 44.8245 -38.2304 45.8342 -39.7114 46.4683C-41.1927 47.1026 -42.5328 47.357 -43.7464 47.1045C-44.9571 46.8525 -46.0583 46.0925 -47.0568 44.6637ZM-9.92405 24.9982C-12.4103 25.8476 -14.7716 26.9217 -17.0132 28.1276C-18.4802 28.1637 -19.9356 28.1424 -21.3716 28.0792C-20.1046 27.2771 -18.7959 26.5033 -17.444 25.7782C-14.9581 25.7098 -12.4384 25.4752 -9.92405 24.9982ZM-21.6644 28.2656C-20.259 28.3329 -18.8337 28.3611 -17.396 28.3354C-19.434 29.452 -21.372 30.6745 -23.214 31.932C-25.553 33.5287 -27.7382 35.1825 -29.7767 36.7478C-30.1075 37.0018 -30.4345 37.2535 -30.7576 37.5023C-32.426 38.7867 -33.9917 39.992 -35.4614 41.0348C-37.216 42.2798 -38.8286 43.2894 -40.3096 43.9236C-41.7909 44.5578 -43.131 44.8123 -44.3446 44.5597C-45.5553 44.3078 -46.6565 43.5477 -47.655 42.119C-48.6134 40.7474 -49.474 38.7637 -50.2411 36.0349C-49.6771 37.5735 -49.0668 38.7961 -48.4071 39.7401C-47.3871 41.1998 -46.2454 41.9979 -44.9724 42.2628C-43.7024 42.5272 -42.3181 42.2573 -40.8176 41.6148C-39.3169 40.9722 -37.6906 39.9528 -35.9325 38.7054C-34.4593 37.6601 -32.89 36.452 -31.2217 35.1676C-30.8988 34.919 -30.5721 34.6676 -30.2417 34.4139C-28.2037 32.8489 -26.0223 31.198 -23.6881 29.6046C-23.0258 29.1525 -22.3513 28.705 -21.6644 28.2656ZM-24.3508 28.0911C-23.5774 28.1537 -22.7961 28.2069 -22.0083 28.2483C-22.6161 28.6403 -23.2139 29.0382 -23.802 29.4397C-26.141 31.0364 -28.3261 32.6901 -30.3646 34.2555C-30.6955 34.5095 -31.0224 34.7612 -31.3455 35.0099C-33.014 36.2943 -34.5796 37.4996 -36.0494 38.5425C-37.804 39.7875 -39.4166 40.7971 -40.8976 41.4313C-42.3789 42.0655 -43.719 42.32 -44.9326 42.0674C-46.1433 41.8155 -47.2445 41.0554 -48.2429 39.6267C-49.0787 38.4306 -49.8401 36.7691 -50.5299 34.5539C-50.71 33.3139 -50.7571 32.2426 -50.6823 31.3202C-50.542 29.5905 -49.9737 28.3893 -49.053 27.5742C-48.13 26.757 -46.8404 26.3166 -45.236 26.1355C-43.6319 25.9544 -41.7234 26.0337 -39.5727 26.2467C-37.7711 26.4251 -35.8041 26.697 -33.708 26.9866C-33.3021 27.0427 -32.8913 27.0995 -32.4759 27.1563C-29.9169 27.5068 -27.1861 27.8616 -24.3508 28.0911ZM-21.7197 28.0631C-22.6 28.0201 -23.4726 27.9619 -24.3358 27.8921C-27.1652 27.663 -29.8914 27.3089 -32.4498 26.9586C-32.8646 26.9018 -33.2749 26.8451 -33.6806 26.789C-35.7766 26.4993 -37.7482 26.2269 -39.554 26.048C-41.709 25.8346 -43.6343 25.7536 -45.2598 25.9371C-46.885 26.1206 -48.2207 26.5694 -49.1866 27.4246C-50.1547 28.2817 -50.7387 29.5358 -50.882 31.3029C-50.9337 31.9401 -50.9282 32.6446 -50.8626 33.4225C-50.8838 33.3462 -50.9049 33.2693 -50.926 33.1919C-51.2681 31.4366 -51.3782 29.9794 -51.2805 28.7755C-51.1403 27.0458 -50.5719 25.8446 -49.6512 25.0294C-48.7282 24.2123 -47.4386 23.7719 -45.8343 23.5908C-44.2301 23.4097 -42.3216 23.4889 -40.1709 23.702C-38.3693 23.8804 -36.4023 24.1522 -34.3063 24.4419C-33.9003 24.498 -33.4895 24.5547 -33.0742 24.6116C-30.5152 24.9621 -27.7843 25.3168 -24.9491 25.5463C-22.6516 25.7323 -20.2849 25.8361 -17.8843 25.7886C-19.2042 26.5084 -20.4823 27.2729 -21.7197 28.0631Z" stroke="white" stroke-width="0.2"/>
<path d="M35.4892 13.2551C36.4598 14.644 37.33 16.6607 38.1043 19.4431C37.5351 17.8802 36.9186 16.6409 36.2516 15.6864C35.2315 14.2267 34.0899 13.4286 32.8169 13.1636C31.5469 12.8993 30.1625 13.1692 28.662 13.8117C27.1613 14.4543 25.535 15.4737 23.777 16.7211C22.3038 17.7664 20.7344 18.9746 19.066 20.259C18.7431 20.5075 18.4165 20.759 18.0862 21.0126C16.0482 22.5775 13.8667 24.2285 11.5326 25.8219C10.8703 26.274 10.1957 26.7215 9.50882 27.1609C8.06764 27.0919 6.60548 27.064 5.13056 27.0931C7.20504 25.9619 9.17622 24.72 11.0482 23.4421C13.3872 21.8454 15.5724 20.1916 17.6109 18.6263C17.9418 18.3722 18.2688 18.1205 18.5919 17.8717C20.2603 16.5874 21.8259 15.3821 23.2956 14.3393C25.0502 13.0943 26.6628 12.0846 28.1439 11.4505C29.6251 10.8162 30.9652 10.5618 32.1789 10.8143C33.3895 11.0663 34.4907 11.8263 35.4892 13.2551ZM36.0874 15.7998C36.9232 16.9959 37.6846 18.6574 38.3744 20.8726C38.5544 22.1126 38.6016 23.1838 38.5268 24.1063C38.3865 25.836 37.8182 27.0372 36.8975 27.8523C35.9745 28.6695 34.6849 29.1099 33.0805 29.291C31.4764 29.4721 29.5679 29.3928 27.4171 29.1798C25.6156 29.0013 23.6486 28.7295 21.5525 28.4399C21.1465 28.3838 20.7358 28.327 20.3204 28.2701C17.7614 27.9197 15.0305 27.5649 12.1953 27.3354C11.4219 27.2728 10.6405 27.2195 9.85274 27.1782C10.4605 26.7862 11.0584 26.3883 11.6465 25.9868C13.9855 24.3901 16.1706 22.7363 18.2091 21.171C18.54 20.917 18.8669 20.6653 19.19 20.4165C20.8584 19.1321 22.4241 17.9269 23.8938 16.884C25.6484 15.639 27.2611 14.6294 28.7421 13.9952C30.2233 13.361 31.5634 13.1065 32.7771 13.3591C33.9877 13.611 35.089 14.3711 36.0874 15.7998ZM38.7265 24.1236C38.7781 23.4864 38.7726 22.7819 38.7071 22.004C38.7282 22.0799 38.7492 22.1564 38.7701 22.2335C39.1044 23.9659 39.2114 25.4065 39.1147 26.5986C38.9745 28.3283 38.4061 29.5295 37.4854 30.3446C36.5624 31.1618 35.2728 31.6022 33.6685 31.7833C32.0644 31.9644 30.1559 31.8851 28.0051 31.6721C26.2036 31.4937 24.2366 31.2219 22.1406 30.9322C21.7346 30.8761 21.3238 30.8193 20.9084 30.7625C18.3494 30.412 15.6185 30.0572 12.7833 29.8277C10.5209 29.6446 8.19132 29.5412 5.82846 29.5834C7.11306 28.8796 8.35795 28.1336 9.56411 27.3634C10.4444 27.4063 11.3171 27.4646 12.1803 27.5344C15.0096 27.7634 17.7359 28.1175 20.2943 28.4679C20.7091 28.5247 21.1195 28.5815 21.5253 28.6375C23.6212 28.9272 25.5928 29.1996 27.3985 29.3785C29.5535 29.5919 31.4788 29.6728 33.1042 29.4894C34.7294 29.3059 36.0652 28.857 37.031 28.0019C37.9992 27.1448 38.5832 25.8907 38.7265 24.1236ZM39.3144 26.6159C39.3694 25.9384 39.3597 25.1848 39.2819 24.3478C39.6838 26.2736 39.8175 27.8538 39.713 29.1433C39.5727 30.873 39.0043 32.0742 38.0836 32.8894C37.1607 33.7065 35.8711 34.1469 34.2667 34.328C32.6626 34.5091 30.7541 34.4299 28.6033 34.2168C26.8018 34.0384 24.8348 33.7666 22.7388 33.4769C22.3328 33.4208 21.922 33.3641 21.5066 33.3072C18.9476 32.9567 16.2167 32.602 13.3815 32.3725C8.56845 31.9829 3.45136 31.9539 -1.64352 32.9206C0.8427 32.0712 3.20403 30.9971 5.44562 29.7912C7.93265 29.7299 10.3866 29.834 12.7683 30.0267C15.5976 30.2558 18.3239 30.6099 20.8823 30.9602C21.297 31.017 21.7074 31.0738 22.1132 31.1298C24.2091 31.4195 26.1807 31.6919 27.9865 31.8708C30.1415 32.0842 32.0668 32.1652 33.6922 31.9817C35.3174 31.7982 36.6532 31.3494 37.619 30.4942C38.5871 29.6371 39.1711 28.383 39.3144 26.6159ZM9.21602 27.3473C7.98133 28.129 6.70687 28.8838 5.39154 29.5928C2.86888 29.6572 0.310773 29.8916 -2.24176 30.3759C0.206379 29.5395 2.53343 28.4853 4.7443 27.3018C6.24967 27.2617 7.74313 27.2825 9.21602 27.3473ZM-15.1992 32.3802C-17.7251 32.4476 -20.2174 32.3433 -22.6352 32.1476C-25.4646 31.9186 -28.1908 31.5645 -30.7492 31.2141C-31.164 31.1573 -31.5743 31.1006 -31.98 31.0446C-34.076 30.7549 -36.0476 30.4825 -37.8534 30.3036C-40.0084 30.0901 -41.9337 30.0092 -43.5592 30.1927C-45.1844 30.3761 -46.5201 30.825 -47.486 31.6801C-48.4541 32.5373 -49.0381 33.7914 -49.1814 35.5585C-49.2365 36.2375 -49.2266 36.993 -49.1483 37.8321C-49.5426 35.9276 -49.6734 34.3625 -49.5697 33.0834C-49.4294 31.3538 -48.861 30.1526 -47.9403 29.3374C-47.0174 28.5202 -45.7278 28.0799 -44.1234 27.8988C-42.5193 27.7177 -40.6108 27.7969 -38.46 28.0099C-36.6585 28.1884 -34.6915 28.4602 -32.5954 28.7499C-32.1894 28.806 -31.7787 28.8627 -31.3633 28.9196C-28.8043 29.2701 -26.0734 29.6248 -23.2382 29.8543C-18.4252 30.2439 -13.3081 30.2728 -8.21319 29.3061C-10.6613 30.1426 -12.9884 31.1968 -15.1992 32.3802ZM-2.82972 27.8836C2.07271 26.2086 6.48957 23.6604 10.4603 20.9498C12.7993 19.3531 14.9844 17.6993 17.0229 16.134C17.3538 15.8799 17.6807 15.6282 18.0038 15.3795C19.6722 14.0951 21.2379 12.8898 22.7076 11.847C24.4622 10.602 26.0749 9.59232 27.5559 8.95817C29.0371 8.32393 30.3772 8.06944 31.5909 8.32203C32.8015 8.57399 33.9028 9.33404 34.9012 10.7628C35.8597 12.1343 36.7203 14.118 37.4873 16.8468C36.9233 15.3082 36.3131 14.0857 35.6534 13.1417C34.6333 11.682 33.4917 10.8839 32.2187 10.6189C30.9487 10.3546 29.5643 10.6245 28.0638 11.267C26.5631 11.9095 24.9368 12.929 23.1787 14.1764C21.7056 15.2217 20.1363 16.4298 18.468 17.7141C18.145 17.9627 17.8184 18.2142 17.488 18.4679C15.45 20.0328 13.2685 21.6837 10.9343 23.2772C8.96291 24.623 6.88324 25.9273 4.69025 27.1035C2.20433 27.172 -0.315399 27.4065 -2.82972 27.8836ZM-7.027 34.3432C-11.9294 36.0182 -16.3463 38.5664 -20.317 41.277C-22.656 42.8737 -24.8411 44.5275 -26.8796 46.0928C-27.2105 46.3469 -27.5375 46.5986 -27.8606 46.8473C-29.529 48.1317 -31.0946 49.337 -32.5643 50.3798C-34.3189 51.6248 -35.9316 52.6345 -37.4126 53.2686C-38.8938 53.9029 -40.2339 54.1573 -41.4476 53.9048C-42.6582 53.6528 -43.7595 52.8927 -44.7579 51.464C-45.7285 50.0751 -46.5987 48.0585 -47.373 45.2762C-46.8038 46.8389 -46.1874 48.0782 -45.5203 49.0327C-44.5003 50.4924 -43.3587 51.2905 -42.0856 51.5555C-40.8156 51.8198 -39.4313 51.5499 -37.9308 50.9074C-36.4301 50.2648 -34.8038 49.2454 -33.0457 47.998C-31.5725 46.9527 -30.0032 45.7445 -28.3348 44.4602C-28.0119 44.2116 -27.6853 43.9602 -27.355 43.7065C-25.317 42.1415 -23.1355 40.4906 -20.8013 38.8972C-18.8608 37.5725 -16.8154 36.288 -14.6603 35.1263C-12.1376 35.0619 -9.57953 34.8275 -7.027 34.3432ZM-15.1452 32.5785C-12.6593 32.5101 -10.1395 32.2755 -7.62522 31.7984C-10.1114 32.6479 -12.4728 33.722 -14.7144 34.9279C-16.1814 34.964 -17.6368 34.9427 -19.0727 34.8795C-17.8058 34.0774 -16.497 33.3036 -15.1452 32.5785ZM-15.0972 35.1357C-17.1352 36.2523 -19.0732 37.4748 -20.9152 38.7323C-23.2542 40.329 -25.4394 41.9827 -27.4778 43.5481C-27.8087 43.8021 -28.1356 44.0538 -28.4587 44.3025C-30.1272 45.5869 -31.6928 46.7922 -33.1626 47.8351C-34.9172 49.0801 -36.5298 50.0897 -38.0108 50.7239C-39.4921 51.3581 -40.8322 51.6126 -42.0458 51.36C-43.2565 51.1081 -44.3577 50.348 -45.3561 48.9193C-46.3146 47.5477 -47.1752 45.564 -47.9422 42.8352C-47.3783 44.3738 -46.768 45.5963 -46.1083 46.5404C-45.0882 48 -43.9466 48.7982 -42.6736 49.0631C-41.4036 49.3275 -40.0192 49.0576 -38.5188 48.4151C-37.0181 47.7725 -35.3917 46.7531 -33.6337 45.5057C-32.1605 44.4604 -30.5912 43.2522 -28.9228 41.9679C-28.5999 41.7193 -28.2733 41.4679 -27.9429 41.2142C-25.9049 39.6492 -23.7235 37.9983 -21.3893 36.4049C-20.727 35.9528 -20.0525 35.5053 -19.3655 35.0658C-17.9602 35.1331 -16.5349 35.1614 -15.0972 35.1357ZM-19.7095 35.0486C-20.3172 35.4406 -20.9151 35.8385 -21.5032 36.2399C-23.8422 37.8367 -26.0273 39.4904 -28.0658 41.0558C-28.3967 41.3098 -28.7236 41.5615 -29.0467 41.8102C-30.7151 43.0946 -32.2808 44.2999 -33.7505 45.3428C-35.5051 46.5878 -37.1178 47.5974 -38.5988 48.2316C-40.08 48.8658 -41.4201 49.1203 -42.6338 48.8677C-43.8444 48.6158 -44.9457 47.8557 -45.9441 46.4269C-46.7799 45.2309 -47.5413 43.5694 -48.2311 41.3542C-48.4111 40.1141 -48.4583 39.0429 -48.3835 38.1205C-48.2432 36.3908 -47.6749 35.1896 -46.7542 34.3745C-45.8312 33.5573 -44.5416 33.1169 -42.9372 32.9358C-41.3331 32.7547 -39.4246 32.8339 -37.2738 33.047C-35.4723 33.2254 -33.5053 33.4972 -31.4092 33.7869C-31.0032 33.843 -30.5925 33.8998 -30.1771 33.9566C-27.6181 34.3071 -24.8872 34.6619 -22.052 34.8913C-21.2786 34.954 -20.4973 35.0072 -19.7095 35.0486ZM-19.4208 34.8633C-20.3011 34.8204 -21.1738 34.7622 -22.037 34.6923C-24.8664 34.4633 -27.5926 34.1092 -30.151 33.7588C-30.5657 33.7021 -30.9761 33.6453 -31.3818 33.5893C-33.4778 33.2996 -35.4494 33.0272 -37.2552 32.8483C-39.4102 32.6349 -41.3355 32.5539 -42.961 32.7374C-44.5862 32.9209 -45.9219 33.3697 -46.8877 34.2249C-47.8559 35.082 -48.4399 36.3361 -48.5832 38.1032C-48.6349 38.7404 -48.6293 39.4449 -48.5638 40.2228C-48.585 40.1465 -48.6061 40.0696 -48.6271 39.9922C-48.9692 38.2369 -49.0793 36.7797 -48.9817 35.5758C-48.8414 33.8461 -48.2731 32.6449 -47.3524 31.8297C-46.4294 31.0126 -45.1398 30.5722 -43.5354 30.3911C-41.9313 30.21 -40.0228 30.2892 -37.8721 30.5023C-36.0705 30.6807 -34.1035 30.9525 -32.0074 31.2422C-31.6015 31.2983 -31.1907 31.355 -30.7753 31.4119C-28.2163 31.7624 -25.4855 32.1171 -22.6503 32.3466C-20.3528 32.5326 -17.986 32.6364 -15.5855 32.5889C-16.9054 33.3087 -18.1835 34.0732 -19.4208 34.8633Z" stroke="white" stroke-width="0.2"/>
</g>
<path d="M40.5107 9.5127C40.5107 9.46842 40.5332 9.44629 40.5781 9.44629H40.7633L43.4652 9.38818C43.7907 9.37712 44.1442 9.37158 44.5258 9.37158H45.5779C46.5543 9.37158 47.2867 9.40755 47.7749 9.47949C48.2687 9.55143 48.7513 9.63721 49.2226 9.73682C49.6996 9.83089 50.2046 10.0495 50.7377 10.3926C51.2764 10.7357 51.7422 11.1507 52.135 11.6377C52.9655 12.6781 53.3808 13.8014 53.3808 15.0078C53.3808 16.2142 53.0609 17.2961 52.4212 18.2534C51.5009 19.6424 50.1682 20.55 48.423 20.9761C47.8674 21.1089 47.2979 21.1753 46.7143 21.1753H40.5781C40.5332 21.1753 40.5107 21.1532 40.5107 21.1089V20.8765C40.5107 20.8322 40.5332 20.8101 40.5781 20.8101H40.7633C41.7846 20.8101 42.2952 20.4891 42.2952 19.8472V10.7495C42.2952 10.4396 42.1746 10.2072 41.9333 10.0522C41.692 9.89176 41.4198 9.81152 41.1168 9.81152H40.5781C40.5332 9.81152 40.5107 9.78939 40.5107 9.74512V9.5127ZM44.147 9.76172C44.0067 9.76172 43.9366 9.83643 43.9366 9.98584V20.1377C43.9366 20.5472 44.3266 20.7603 45.1066 20.7769C45.3366 20.7824 45.5779 20.7852 45.8305 20.7852C47.6205 20.7852 49.0262 20.2899 50.0475 19.2993C51.0744 18.3088 51.5879 16.9917 51.5879 15.3481C51.5879 13.6991 51.1137 12.3571 50.1654 11.3223C49.2226 10.2819 47.9797 9.76172 46.4365 9.76172H44.147Z" fill="white"/>
<path d="M55.3932 16.8008C55.2978 16.8008 55.2501 17.0028 55.2501 17.4067C55.2501 18.2645 55.5082 18.9839 56.0245 19.5649C56.5407 20.146 57.1804 20.4365 57.9436 20.4365C58.7124 20.4365 59.4503 20.11 60.1573 19.457C60.1686 19.446 60.1826 19.4404 60.1994 19.4404H60.2415C60.2752 19.4404 60.306 19.4681 60.3341 19.5234C60.3678 19.5732 60.3986 19.6064 60.4267 19.623C59.7758 20.4033 59.0098 20.9429 58.1288 21.2417C57.8258 21.3468 57.4835 21.3994 57.1019 21.3994C56.7203 21.3994 56.3331 21.297 55.9403 21.0923C55.5475 20.882 55.2108 20.6081 54.9302 20.2705C54.3354 19.5677 54.038 18.6934 54.038 17.6475C54.038 16.596 54.3606 15.6387 55.006 14.7754C55.6569 13.9121 56.5491 13.4805 57.6827 13.4805C58.4963 13.4805 59.1613 13.8402 59.6776 14.5596C60.1938 15.2734 60.4519 15.9015 60.4519 16.4438C60.4519 16.6818 60.393 16.8008 60.2752 16.8008H55.3932ZM55.4858 16.0039C55.4858 16.109 55.5363 16.1616 55.6373 16.1616H58.8106C58.9565 16.1616 59.0294 16.0758 59.0294 15.9043C59.0294 15.5059 58.8471 15.0991 58.4823 14.6841C58.1232 14.2635 57.7276 14.0532 57.2955 14.0532C56.8746 14.0532 56.4902 14.2414 56.1423 14.6177C55.8 14.994 55.5811 15.4229 55.4858 15.9043V16.0039Z" fill="white"/>
<path d="M62.5317 16.8008C62.4363 16.8008 62.3886 17.0028 62.3886 17.4067C62.3886 18.2645 62.6467 18.9839 63.163 19.5649C63.6792 20.146 64.319 20.4365 65.0821 20.4365C65.8509 20.4365 66.5888 20.11 67.2959 19.457C67.3071 19.446 67.3211 19.4404 67.338 19.4404H67.38C67.4137 19.4404 67.4446 19.4681 67.4726 19.5234C67.5063 19.5732 67.5372 19.6064 67.5652 19.623C66.9143 20.4033 66.1483 20.9429 65.2673 21.2417C64.9643 21.3468 64.622 21.3994 64.2404 21.3994C63.8588 21.3994 63.4716 21.297 63.0788 21.0923C62.686 20.882 62.3493 20.6081 62.0687 20.2705C61.4739 19.5677 61.1765 18.6934 61.1765 17.6475C61.1765 16.596 61.4992 15.6387 62.1445 14.7754C62.7954 13.9121 63.6877 13.4805 64.8212 13.4805C65.6349 13.4805 66.2998 13.8402 66.8161 14.5596C67.3323 15.2734 67.5905 15.9015 67.5905 16.4438C67.5905 16.6818 67.5316 16.8008 67.4137 16.8008H62.5317ZM62.6243 16.0039C62.6243 16.109 62.6748 16.1616 62.7758 16.1616H65.9491C66.095 16.1616 66.168 16.0758 66.168 15.9043C66.168 15.5059 65.9856 15.0991 65.6208 14.6841C65.2617 14.2635 64.8661 14.0532 64.434 14.0532C64.0131 14.0532 63.6287 14.2414 63.2808 14.6177C62.9385 14.994 62.7197 15.4229 62.6243 15.9043V16.0039Z" fill="white"/>
<path d="M74.6532 20.3037C73.8789 21.0342 73.0091 21.3994 72.0439 21.3994C71.696 21.3994 71.2218 21.3358 70.6214 21.2085C70.526 21.2085 70.4727 21.2417 70.4614 21.3081C70.4558 21.3745 70.4502 21.4437 70.4446 21.5156V25.0601C70.4446 25.4751 70.6887 25.7518 71.1769 25.8901C71.3901 25.9455 71.5894 25.9842 71.7745 26.0063C71.9597 26.034 72.0776 26.0589 72.1281 26.0811C72.1842 26.1032 72.2122 26.1447 72.2122 26.2056C72.2122 26.272 72.1842 26.3107 72.1281 26.3218H67.911C67.8549 26.3107 67.8268 26.272 67.8268 26.2056C67.8268 26.106 67.9587 26.0396 68.2224 26.0063C68.8285 25.9178 69.1315 25.6024 69.1315 25.0601V15.1074C69.1315 14.875 69.0024 14.7145 68.7443 14.626C68.6321 14.5872 68.5114 14.5568 68.3824 14.5347C68.2533 14.507 68.1495 14.4821 68.0709 14.46C67.998 14.4378 67.9503 14.4185 67.9278 14.4019C67.911 14.3797 67.9026 14.3382 67.9026 14.2773C67.9026 14.2109 67.9447 14.1556 68.0288 14.1113L70.1753 13.0986C70.2201 13.0765 70.265 13.0654 70.3099 13.0654C70.3997 13.0654 70.4446 13.1318 70.4446 13.2646V14.3188C70.4446 14.3797 70.4755 14.4102 70.5372 14.4102C70.6045 14.4102 70.7617 14.3299 71.0086 14.1694C71.7212 13.7157 72.4619 13.4888 73.2307 13.4888C73.7694 13.4888 74.2632 13.7046 74.7122 14.1362C75.3014 14.7007 75.6942 15.4865 75.8906 16.4937C75.9467 16.7814 75.9748 17.0885 75.9748 17.415C75.9748 17.736 75.9214 18.0763 75.8148 18.436C75.6016 19.1499 75.2144 19.7725 74.6532 20.3037ZM72.2459 14.3521C71.4827 14.3521 70.8823 14.5679 70.4446 14.9995V19.6646C70.4446 19.9412 70.4923 20.1211 70.5877 20.2041C70.8346 20.4144 71.2134 20.5776 71.724 20.6938C72.7341 20.9207 73.5197 20.6828 74.0809 19.98C74.4793 19.4764 74.6785 18.8677 74.6785 18.1538C74.6785 16.7648 74.3614 15.7244 73.7273 15.0327C73.3458 14.6121 72.8519 14.3853 72.2459 14.3521Z" fill="white"/>
<path d="M80.3026 21.1753C80.2577 21.1753 80.2352 21.1532 80.2352 21.1089V20.9097C80.2352 20.8654 80.2745 20.8433 80.3531 20.8433C80.6168 20.8433 80.9086 20.8156 81.2285 20.7603C82.2554 20.5887 82.7688 20.2401 82.7688 19.7144V10.957C82.7127 10.2487 82.3845 9.8641 81.784 9.80322C81.6045 9.78109 81.4052 9.77002 81.1864 9.77002H80.7066C80.6617 9.77002 80.6393 9.74788 80.6393 9.70361V9.49609C80.6393 9.45182 80.6617 9.42969 80.7066 9.42969L81.077 9.42139L82.5247 9.41309L85.5213 9.32178C88.7311 9.32178 90.336 10.257 90.336 12.1274C90.336 12.9188 89.9207 13.5773 89.0902 14.103C88.9612 14.186 88.8489 14.2469 88.7535 14.2856C88.6637 14.3244 88.6132 14.3465 88.602 14.3521C89.3427 14.7616 89.9235 15.2209 90.3444 15.73C90.7709 16.2391 90.9841 16.8478 90.9841 17.5562C90.9841 19.0669 90.2602 20.1183 88.8125 20.7104C88.0661 21.0203 87.2553 21.1753 86.3799 21.1753H80.3026ZM84.5617 14.7007C84.4888 14.7007 84.4523 14.7311 84.4523 14.792V19.3408C84.4523 19.7337 84.6375 20.0492 85.0078 20.2871C85.3838 20.5251 85.7878 20.644 86.2199 20.644C87.0504 20.644 87.7575 20.3535 88.3411 19.7725C88.9247 19.1859 89.2165 18.4665 89.2165 17.6143C89.2165 16.7565 88.9022 16.0565 88.2737 15.5142C87.6509 14.9718 86.8596 14.7007 85.9001 14.7007H84.5617ZM84.4355 14.0283C84.4355 14.1335 84.5 14.186 84.6291 14.186H86.6997C87.2384 14.186 87.6901 13.9896 88.0549 13.5967C88.4253 13.2038 88.6104 12.7638 88.6104 12.2769C88.6104 11.408 88.3607 10.7799 87.8613 10.3926C87.3619 9.99967 86.6969 9.80322 85.8664 9.80322C85.6139 9.81982 85.4371 9.82812 85.3361 9.82812C85.2407 9.82812 85.1397 9.82812 85.0331 9.82812C84.9265 9.82259 84.8199 9.82812 84.7132 9.84473C84.6066 9.86133 84.5337 9.8973 84.4944 9.95264C84.4551 10.008 84.4355 10.0993 84.4355 10.2266V14.0283Z" fill="white"/>
<path d="M96.8853 15.2236C96.818 15.2126 96.7198 15.1766 96.5907 15.1157C96.1249 14.9054 95.7602 14.8003 95.4964 14.8003C95.2327 14.8003 94.9549 14.9635 94.6631 15.29C94.3769 15.611 94.2339 15.9015 94.2339 16.1616V19.9136C94.2339 20.3286 94.478 20.6053 94.9662 20.7437C95.1794 20.799 95.3786 20.8405 95.5638 20.8682C95.749 20.8903 95.8668 20.9124 95.9173 20.9346C95.9734 20.9567 96.0015 21.001 96.0015 21.0674C96.0015 21.1283 95.9734 21.1642 95.9173 21.1753H91.7003C91.6441 21.1642 91.6161 21.1255 91.6161 21.0591C91.6161 20.9595 91.748 20.8931 92.0117 20.8599C92.6177 20.7713 92.9208 20.4559 92.9208 19.9136V15.5225C92.9208 15.29 92.7917 15.1296 92.5336 15.041C92.4213 15.0023 92.3007 14.9718 92.1716 14.9497C92.0426 14.922 91.9387 14.8971 91.8602 14.875C91.7872 14.8529 91.7395 14.8335 91.7171 14.8169C91.7003 14.7948 91.6918 14.7533 91.6918 14.6924C91.6918 14.626 91.7339 14.5706 91.8181 14.5264L93.9645 13.5303C94.0318 13.4971 94.0739 13.4805 94.0908 13.4805C94.1862 13.4805 94.2339 13.5469 94.2339 13.6797V15.0244C94.2339 15.0908 94.2507 15.124 94.2844 15.124C94.3293 15.124 94.4443 14.994 94.6295 14.7339C95.1626 13.9979 95.6031 13.6299 95.951 13.6299C96.1474 13.6299 96.4476 13.7074 96.8516 13.8623C97.2613 14.0173 97.4661 14.1473 97.4661 14.2524C97.4661 14.3797 97.4016 14.5734 97.2725 14.8335C97.1434 15.0936 97.0144 15.2236 96.8853 15.2236Z" fill="white"/>
<path d="M97.3742 21.1753C97.3181 21.1642 97.29 21.1255 97.29 21.0591C97.29 20.9595 97.4219 20.8931 97.6856 20.8599C98.2917 20.7713 98.5947 20.4559 98.5947 19.9136V15.5225C98.5947 15.29 98.4656 15.1296 98.2075 15.041C98.0953 15.0023 97.9746 14.9718 97.8455 14.9497C97.7165 14.922 97.6127 14.8971 97.5341 14.875C97.4611 14.8529 97.4135 14.8335 97.391 14.8169C97.3742 14.7948 97.3658 14.7533 97.3658 14.6924C97.3658 14.626 97.4078 14.5706 97.492 14.5264L99.6384 13.5303C99.7058 13.4971 99.7478 13.4805 99.7647 13.4805C99.8601 13.4805 99.9078 13.5469 99.9078 13.6797V19.9136C99.9078 20.4559 100.211 20.7713 100.817 20.8599C101.081 20.8931 101.212 20.9512 101.212 21.0342C101.212 21.1172 101.184 21.1642 101.128 21.1753H97.3742ZM99.125 11.1479C98.8949 11.1479 98.6901 11.076 98.5105 10.9321C98.3365 10.7882 98.2496 10.589 98.2496 10.3345C98.2496 10.0744 98.3337 9.86963 98.5021 9.72021C98.6704 9.5708 98.8696 9.49609 99.0997 9.49609C99.3354 9.49609 99.5318 9.58464 99.6889 9.76172C99.8517 9.9388 99.933 10.1297 99.933 10.3345C99.933 10.5392 99.8573 10.7274 99.7058 10.8989C99.5542 11.0649 99.3606 11.1479 99.125 11.1479Z" fill="white"/>
<path d="M106.726 13.8291C106.973 13.9121 107.125 13.9536 107.181 13.9536C107.237 13.9536 107.271 13.9536 107.282 13.9536C107.299 13.9481 107.318 13.9121 107.341 13.8457V9.5625C107.341 9.33008 107.212 9.1696 106.954 9.08105C106.841 9.04232 106.721 9.01188 106.592 8.98975C106.463 8.96208 106.359 8.93717 106.28 8.91504C106.207 8.8929 106.16 8.87354 106.137 8.85693C106.12 8.8348 106.112 8.79329 106.112 8.73242C106.112 8.66602 106.154 8.61068 106.238 8.56641L108.385 7.57031C108.452 7.53711 108.494 7.52051 108.511 7.52051C108.606 7.52051 108.654 7.58691 108.654 7.71973V19.54C108.682 19.7835 108.752 19.9578 108.864 20.063C108.977 20.1681 109.159 20.2207 109.412 20.2207L109.9 20.1875C109.933 20.1875 109.95 20.2207 109.95 20.2871C109.95 20.348 109.908 20.3978 109.824 20.4365L107.585 21.3496C107.518 21.3828 107.459 21.3994 107.408 21.3994C107.363 21.3994 107.341 21.3302 107.341 21.1919V20.4365C107.341 20.3812 107.327 20.3535 107.299 20.3535C107.26 20.3535 107.027 20.478 106.6 20.7271C105.293 21.4907 104.19 21.6042 103.292 21.0674C102.574 20.6357 102.089 19.9523 101.836 19.0171C101.718 18.5799 101.659 18.1178 101.659 17.6309C101.659 17.1383 101.76 16.6514 101.962 16.1699C102.17 15.6829 102.453 15.2568 102.812 14.8916C103.604 14.0947 104.558 13.6963 105.674 13.6963C106.129 13.6963 106.48 13.7406 106.726 13.8291ZM102.93 17.3901C102.93 18.2257 103.166 18.959 103.637 19.5898C104.109 20.2152 104.765 20.5278 105.607 20.5278C105.977 20.5278 106.359 20.4393 106.752 20.2622C107.144 20.0796 107.341 19.9412 107.341 19.8472V15.564C107.341 15.4588 107.268 15.3343 107.122 15.1904C106.673 14.5817 106.076 14.2773 105.329 14.2773C104.588 14.2773 104.002 14.5872 103.57 15.207C103.143 15.8213 102.93 16.549 102.93 17.3901Z" fill="white"/>
<path d="M116.323 14.2773C116.323 14.2773 117.075 14.2441 118.579 14.1777C118.708 14.1777 118.792 14.1916 118.831 14.2192C118.87 14.2469 118.913 14.3437 118.957 14.5098C119.002 14.6702 119.025 14.8224 119.025 14.9663C119.025 15.1102 119.011 15.1932 118.983 15.2153C118.955 15.2375 118.898 15.2485 118.814 15.2485H116.946C116.979 15.3094 117.016 15.373 117.055 15.4395C117.094 15.5059 117.145 15.6165 117.207 15.7715C117.268 15.9264 117.299 16.1672 117.299 16.4937C117.299 16.8146 117.218 17.1522 117.055 17.5063C116.898 17.855 116.665 18.1649 116.356 18.436C115.672 19.0448 114.785 19.3491 113.697 19.3491C113.41 19.3491 113.096 19.2965 112.754 19.1914C112.67 19.2799 112.557 19.363 112.417 19.4404C112.277 19.5124 112.139 19.5871 112.005 19.6646C111.668 19.8527 111.5 20.0409 111.5 20.229C111.5 20.6994 112.291 20.9401 113.873 20.9512C115.456 20.9622 116.494 21.0148 116.988 21.1089C117.487 21.1974 117.874 21.3773 118.149 21.6484C118.581 22.0745 118.797 22.5615 118.797 23.1094C118.797 23.5798 118.593 24.064 118.183 24.562C117.47 25.4419 116.382 26.0285 114.917 26.3218C114.395 26.4269 113.843 26.4795 113.259 26.4795C112.198 26.4795 111.393 26.2886 110.843 25.9067C110.293 25.5304 110.018 25.0739 110.018 24.5371C110.018 24.2438 110.088 24.0003 110.229 23.8066C110.369 23.6185 110.546 23.4386 110.759 23.2671C110.978 23.1011 111.216 22.924 111.474 22.7358C111.733 22.5532 111.979 22.318 112.215 22.0303C111.676 21.986 111.214 21.8172 110.826 21.5239C110.445 21.2306 110.254 20.9429 110.254 20.6606C110.254 20.3784 110.33 20.1709 110.481 20.0381C110.633 19.8997 110.818 19.7835 111.037 19.6895C111.256 19.5898 111.486 19.4985 111.727 19.4155C111.968 19.3325 112.179 19.2246 112.358 19.0918C111.73 18.8483 111.244 18.5135 110.902 18.0874C110.56 17.6558 110.389 17.1854 110.389 16.6763C110.389 15.73 110.737 14.958 111.432 14.3604C112.134 13.7627 112.978 13.4639 113.966 13.4639C114.954 13.4639 115.739 13.735 116.323 14.2773ZM111.744 22.9351C111.615 23.0623 111.508 23.1979 111.424 23.3418C111.34 23.4857 111.298 23.6655 111.298 23.8813C111.298 24.1027 111.376 24.3324 111.533 24.5703C111.696 24.8138 111.915 25.0324 112.19 25.2261C112.796 25.6688 113.525 25.8901 114.378 25.8901C115.231 25.8901 116.003 25.6439 116.693 25.1514C117.389 24.6644 117.737 24.1276 117.737 23.541C117.737 22.96 117.451 22.5698 116.878 22.3706C116.609 22.2821 115.916 22.2267 114.799 22.2046C113.683 22.1825 112.959 22.152 112.628 22.1133C112.482 22.2793 112.33 22.4259 112.173 22.5532C112.022 22.6805 111.878 22.8078 111.744 22.9351ZM115.919 16.4854C115.919 15.7051 115.72 15.0715 115.321 14.5845C114.928 14.092 114.406 13.8457 113.756 13.8457C112.914 13.8457 112.319 14.2358 111.971 15.0161C111.836 15.3149 111.769 15.658 111.769 16.0454C111.769 16.8368 111.935 17.4953 112.266 18.021C112.67 18.6519 113.2 18.9673 113.857 18.9673C114.513 18.9673 115.021 18.7487 115.38 18.3115C115.739 17.8743 115.919 17.2656 115.919 16.4854Z" fill="white"/>
<path d="M120.347 16.8008C120.252 16.8008 120.204 17.0028 120.204 17.4067C120.204 18.2645 120.462 18.9839 120.978 19.5649C121.494 20.146 122.134 20.4365 122.897 20.4365C123.666 20.4365 124.404 20.11 125.111 19.457C125.122 19.446 125.136 19.4404 125.153 19.4404H125.195C125.229 19.4404 125.26 19.4681 125.288 19.5234C125.322 19.5732 125.352 19.6064 125.38 19.623C124.73 20.4033 123.964 20.9429 123.083 21.2417C122.78 21.3468 122.437 21.3994 122.056 21.3994C121.674 21.3994 121.287 21.297 120.894 21.0923C120.501 20.882 120.165 20.6081 119.884 20.2705C119.289 19.5677 118.992 18.6934 118.992 17.6475C118.992 16.596 119.314 15.6387 119.96 14.7754C120.611 13.9121 121.503 13.4805 122.636 13.4805C123.45 13.4805 124.115 13.8402 124.631 14.5596C125.148 15.2734 125.406 15.9015 125.406 16.4438C125.406 16.6818 125.347 16.8008 125.229 16.8008H120.347ZM120.44 16.0039C120.44 16.109 120.49 16.1616 120.591 16.1616H123.764C123.91 16.1616 123.983 16.0758 123.983 15.9043C123.983 15.5059 123.801 15.0991 123.436 14.6841C123.077 14.2635 122.681 14.0532 122.249 14.0532C121.828 14.0532 121.444 14.2414 121.096 14.6177C120.754 14.994 120.535 15.4229 120.44 15.9043V16.0039Z" fill="white"/>
<path d="M129.86 9.5127C129.86 9.46842 129.882 9.44629 129.927 9.44629H130.112L132.814 9.38818C133.14 9.37712 133.493 9.37158 133.875 9.37158H134.927C135.903 9.37158 136.636 9.40755 137.124 9.47949C137.618 9.55143 138.1 9.63721 138.572 9.73682C139.049 9.83089 139.554 10.0495 140.087 10.3926C140.626 10.7357 141.091 11.1507 141.484 11.6377C142.315 12.6781 142.73 13.8014 142.73 15.0078C142.73 16.2142 142.41 17.2961 141.77 18.2534C140.85 19.6424 139.517 20.55 137.772 20.9761C137.217 21.1089 136.647 21.1753 136.063 21.1753H129.927C129.882 21.1753 129.86 21.1532 129.86 21.1089V20.8765C129.86 20.8322 129.882 20.8101 129.927 20.8101H130.112C131.134 20.8101 131.644 20.4891 131.644 19.8472V10.7495C131.644 10.4396 131.524 10.2072 131.282 10.0522C131.041 9.89176 130.769 9.81152 130.466 9.81152H129.927C129.882 9.81152 129.86 9.78939 129.86 9.74512V9.5127ZM133.496 9.76172C133.356 9.76172 133.286 9.83643 133.286 9.98584V20.1377C133.286 20.5472 133.676 20.7603 134.456 20.7769C134.686 20.7824 134.927 20.7852 135.18 20.7852C136.97 20.7852 138.375 20.2899 139.397 19.2993C140.424 18.3088 140.937 16.9917 140.937 15.3481C140.937 13.6991 140.463 12.3571 139.514 11.3223C138.572 10.2819 137.329 9.76172 135.786 9.76172H133.496Z" fill="white"/>
<path d="M143.387 21.1753C143.331 21.1642 143.303 21.1255 143.303 21.0591C143.303 20.9595 143.435 20.8931 143.698 20.8599C144.305 20.7713 144.608 20.4559 144.608 19.9136V15.5225C144.608 15.29 144.478 15.1296 144.22 15.041C144.108 15.0023 143.987 14.9718 143.858 14.9497C143.729 14.922 143.626 14.8971 143.547 14.875C143.474 14.8529 143.426 14.8335 143.404 14.8169C143.387 14.7948 143.379 14.7533 143.379 14.6924C143.379 14.626 143.421 14.5706 143.505 14.5264L145.651 13.5303C145.719 13.4971 145.761 13.4805 145.778 13.4805C145.873 13.4805 145.921 13.5469 145.921 13.6797V19.9136C145.921 20.4559 146.224 20.7713 146.83 20.8599C147.093 20.8931 147.225 20.9512 147.225 21.0342C147.225 21.1172 147.197 21.1642 147.141 21.1753H143.387ZM145.138 11.1479C144.908 11.1479 144.703 11.076 144.523 10.9321C144.349 10.7882 144.262 10.589 144.262 10.3345C144.262 10.0744 144.347 9.86963 144.515 9.72021C144.683 9.5708 144.883 9.49609 145.113 9.49609C145.348 9.49609 145.545 9.58464 145.702 9.76172C145.865 9.9388 145.946 10.1297 145.946 10.3345C145.946 10.5392 145.87 10.7274 145.719 10.8989C145.567 11.0649 145.374 11.1479 145.138 11.1479Z" fill="white"/>
<path d="M153.85 14.2773C153.85 14.2773 154.602 14.2441 156.106 14.1777C156.235 14.1777 156.319 14.1916 156.359 14.2192C156.398 14.2469 156.44 14.3437 156.485 14.5098C156.53 14.6702 156.552 14.8224 156.552 14.9663C156.552 15.1102 156.538 15.1932 156.51 15.2153C156.482 15.2375 156.426 15.2485 156.342 15.2485H154.473C154.507 15.3094 154.543 15.373 154.583 15.4395C154.622 15.5059 154.672 15.6165 154.734 15.7715C154.796 15.9264 154.827 16.1672 154.827 16.4937C154.827 16.8146 154.745 17.1522 154.583 17.5063C154.426 17.855 154.193 18.1649 153.884 18.436C153.199 19.0448 152.313 19.3491 151.224 19.3491C150.938 19.3491 150.624 19.2965 150.281 19.1914C150.197 19.2799 150.085 19.363 149.945 19.4404C149.804 19.5124 149.667 19.5871 149.532 19.6646C149.196 19.8527 149.027 20.0409 149.027 20.229C149.027 20.6994 149.819 20.9401 151.401 20.9512C152.983 20.9622 154.022 21.0148 154.515 21.1089C155.015 21.1974 155.402 21.3773 155.677 21.6484C156.109 22.0745 156.325 22.5615 156.325 23.1094C156.325 23.5798 156.12 24.064 155.711 24.562C154.998 25.4419 153.909 26.0285 152.445 26.3218C151.923 26.4269 151.37 26.4795 150.787 26.4795C149.726 26.4795 148.921 26.2886 148.371 25.9067C147.821 25.5304 147.546 25.0739 147.546 24.5371C147.546 24.2438 147.616 24.0003 147.756 23.8066C147.897 23.6185 148.073 23.4386 148.287 23.2671C148.505 23.1011 148.744 22.924 149.002 22.7358C149.26 22.5532 149.507 22.318 149.743 22.0303C149.204 21.986 148.741 21.8172 148.354 21.5239C147.972 21.2306 147.782 20.9429 147.782 20.6606C147.782 20.3784 147.857 20.1709 148.009 20.0381C148.16 19.8997 148.346 19.7835 148.564 19.6895C148.783 19.5898 149.013 19.4985 149.255 19.4155C149.496 19.3325 149.706 19.2246 149.886 19.0918C149.257 18.8483 148.772 18.5135 148.43 18.0874C148.087 17.6558 147.916 17.1854 147.916 16.6763C147.916 15.73 148.264 14.958 148.96 14.3604C149.661 13.7627 150.506 13.4639 151.494 13.4639C152.481 13.4639 153.267 13.735 153.85 14.2773ZM149.271 22.9351C149.142 23.0623 149.036 23.1979 148.952 23.3418C148.867 23.4857 148.825 23.6655 148.825 23.8813C148.825 24.1027 148.904 24.3324 149.061 24.5703C149.224 24.8138 149.443 25.0324 149.718 25.2261C150.324 25.6688 151.053 25.8901 151.906 25.8901C152.759 25.8901 153.531 25.6439 154.221 25.1514C154.917 24.6644 155.265 24.1276 155.265 23.541C155.265 22.96 154.978 22.5698 154.406 22.3706C154.137 22.2821 153.444 22.2267 152.327 22.2046C151.21 22.1825 150.486 22.152 150.155 22.1133C150.009 22.2793 149.858 22.4259 149.701 22.5532C149.549 22.6805 149.406 22.8078 149.271 22.9351ZM153.446 16.4854C153.446 15.7051 153.247 15.0715 152.849 14.5845C152.456 14.092 151.934 13.8457 151.283 13.8457C150.441 13.8457 149.847 14.2358 149.499 15.0161C149.364 15.3149 149.297 15.658 149.297 16.0454C149.297 16.8368 149.462 17.4953 149.793 18.021C150.197 18.6519 150.728 18.9673 151.384 18.9673C152.041 18.9673 152.549 18.7487 152.908 18.3115C153.267 17.8743 153.446 17.2656 153.446 16.4854Z" fill="white"/>
<path d="M156.519 21.1753C156.463 21.1642 156.435 21.1255 156.435 21.0591C156.435 20.9595 156.567 20.8931 156.831 20.8599C157.437 20.7713 157.74 20.4559 157.74 19.9136V15.5225C157.74 15.29 157.611 15.1296 157.353 15.041C157.24 15.0023 157.12 14.9718 156.991 14.9497C156.862 14.922 156.758 14.8971 156.679 14.875C156.606 14.8529 156.559 14.8335 156.536 14.8169C156.519 14.7948 156.511 14.7533 156.511 14.6924C156.511 14.626 156.553 14.5706 156.637 14.5264L158.784 13.5303C158.851 13.4971 158.893 13.4805 158.91 13.4805C159.005 13.4805 159.053 13.5469 159.053 13.6797V19.9136C159.053 20.4559 159.356 20.7713 159.962 20.8599C160.226 20.8931 160.358 20.9512 160.358 21.0342C160.358 21.1172 160.33 21.1642 160.273 21.1753H156.519ZM158.27 11.1479C158.04 11.1479 157.835 11.076 157.656 10.9321C157.482 10.7882 157.395 10.589 157.395 10.3345C157.395 10.0744 157.479 9.86963 157.647 9.72021C157.816 9.5708 158.015 9.49609 158.245 9.49609C158.481 9.49609 158.677 9.58464 158.834 9.76172C158.997 9.9388 159.078 10.1297 159.078 10.3345C159.078 10.5392 159.002 10.7274 158.851 10.8989C158.699 11.0649 158.506 11.1479 158.27 11.1479Z" fill="white"/>
<path d="M162.724 14.792C162.69 14.792 162.673 14.8169 162.673 14.8667V19.4487C162.673 19.7808 162.746 20.0409 162.892 20.229C163.043 20.4172 163.234 20.5112 163.464 20.5112C163.694 20.5112 163.894 20.4753 164.062 20.4033C164.236 20.3258 164.385 20.2428 164.508 20.1543C164.637 20.0658 164.752 19.9855 164.853 19.9136C164.954 19.8361 165.044 19.7974 165.122 19.7974C165.201 19.7974 165.24 19.8167 165.24 19.8555C165.24 19.9883 165.226 20.0741 165.198 20.1128C164.525 20.9705 163.874 21.3994 163.245 21.3994C162.623 21.3994 162.151 21.2057 161.831 20.8184C161.517 20.4255 161.36 19.9578 161.36 19.4155V14.792H160.729C160.572 14.792 160.487 14.7422 160.476 14.6426C160.471 14.543 160.487 14.4793 160.527 14.4517C160.824 14.2635 161.234 13.9259 161.756 13.439C161.812 13.3781 161.887 13.2868 161.983 13.165C162.078 13.0433 162.216 12.8773 162.395 12.667C162.58 12.4567 162.721 12.3516 162.816 12.3516C162.912 12.3516 162.959 12.3903 162.959 12.4678C162.959 12.4788 162.864 12.8413 162.673 13.5552C162.673 13.6548 162.718 13.7074 162.808 13.7129H164.954C165.201 13.7129 165.325 14.056 165.325 14.7422C165.325 14.7754 165.302 14.792 165.257 14.792H162.724Z" fill="white"/>
<path d="M170.645 19.8057C170.645 19.9495 170.712 20.0658 170.847 20.1543C170.987 20.2373 171.147 20.2788 171.327 20.2788C171.506 20.2788 171.655 20.2345 171.773 20.146C171.896 20.0519 171.98 20.0049 172.025 20.0049C172.07 20.0049 172.093 20.0658 172.093 20.1875C172.093 20.3037 172.037 20.4033 171.924 20.4863C171.083 21.0951 170.513 21.3994 170.216 21.3994C169.856 21.3994 169.565 21.0314 169.34 20.2954C169.323 20.2401 169.309 20.2152 169.298 20.2207C168.602 20.7354 168.165 21.0452 167.985 21.1504C167.525 21.4105 167.062 21.452 166.596 21.2749C166.136 21.0978 165.802 20.8045 165.595 20.395C165.494 20.1847 165.443 19.9606 165.443 19.7227C165.443 19.2523 165.62 18.8787 165.973 18.6021C166.327 18.3254 167 18.0597 167.993 17.8052C168.33 17.7166 168.63 17.6032 168.894 17.4648C169.158 17.3265 169.295 17.238 169.307 17.1992C169.323 17.1605 169.332 17.1245 169.332 17.0913V15.4976C169.332 14.8722 169.085 14.4323 168.591 14.1777C168.428 14.0947 168.232 14.0532 168.002 14.0532C167.777 14.0532 167.547 14.1418 167.312 14.3188C167.082 14.4959 166.967 14.7477 166.967 15.0742L167.009 15.3979C166.975 15.4644 166.773 15.575 166.403 15.73C166.032 15.8849 165.819 15.9679 165.763 15.979C165.673 15.979 165.628 15.8739 165.628 15.6636C165.628 15.4478 165.693 15.2098 165.822 14.9497C165.951 14.6896 166.133 14.4517 166.369 14.2358C166.919 13.7323 167.547 13.4805 168.254 13.4805C168.961 13.4805 169.537 13.6742 169.98 14.0615C170.423 14.4434 170.645 14.8999 170.645 15.4312V19.8057ZM166.765 19.5649C166.765 19.8306 166.868 20.063 167.076 20.2622C167.284 20.4559 167.519 20.5527 167.783 20.5527C168.052 20.5527 168.378 20.4421 168.759 20.2207C169.141 19.9938 169.332 19.7614 169.332 19.5234V17.8384C169.332 17.7775 169.318 17.7471 169.29 17.7471C169.262 17.7471 169.242 17.7498 169.231 17.7554L167.278 18.6519C167.076 18.7957 166.938 18.9175 166.866 19.0171C166.798 19.1167 166.765 19.2993 166.765 19.5649Z" fill="white"/>
<path d="M175.317 20.8599C175.581 20.8931 175.713 20.9595 175.713 21.0591C175.713 21.1255 175.685 21.1642 175.629 21.1753H171.874C171.818 21.1642 171.79 21.1255 171.79 21.0591C171.79 20.9595 171.922 20.8931 172.186 20.8599C172.792 20.7713 173.095 20.4559 173.095 19.9136V9.5625C173.095 9.33008 172.966 9.1696 172.708 9.08105C172.596 9.04232 172.475 9.01188 172.346 8.98975C172.217 8.96208 172.113 8.93717 172.034 8.91504C171.961 8.8929 171.914 8.87354 171.891 8.85693C171.874 8.8348 171.866 8.79329 171.866 8.73242C171.866 8.66602 171.908 8.61068 171.992 8.56641L174.139 7.57031C174.206 7.53711 174.248 7.52051 174.265 7.52051C174.36 7.52051 174.408 7.58691 174.408 7.71973V19.9136C174.408 20.4559 174.711 20.7713 175.317 20.8599Z" fill="white"/>
</svg>
