<svg width="84" height="24" viewBox="0 0 84 24" fill="none" xmlns="http://www.w3.org/2000/svg">
<mask id="mask0_1485_1885" style="mask-type:alpha" maskUnits="userSpaceOnUse" x="4" y="4" width="16" height="16">
<circle cx="12" cy="12" r="8" fill="white"/>
</mask>
<g mask="url(#mask0_1485_1885)">
<path d="M19.6813 3.55024C19.5451 3.27613 19.4036 3.03334 19.2566 2.82011C18.7777 2.12521 18.2374 1.73933 17.6298 1.61112C17.0252 1.48351 16.3706 1.61476 15.669 1.9194C14.9672 2.22412 14.2087 2.70653 13.3919 3.29424C12.7073 3.78681 11.9781 4.35611 11.2038 4.96049C11.054 5.07744 10.9025 5.19571 10.7494 5.31499C9.8037 6.05132 8.79232 6.82745 7.7104 7.57639C6.79999 8.20661 5.8403 8.81709 4.82897 9.36781C3.87316 9.39497 2.90634 9.47578 1.93887 9.63064C3.99471 8.84536 5.86097 7.73814 7.55137 6.56799C8.63816 5.81568 9.65322 5.03666 10.5994 4.29994C10.7531 4.18026 10.9049 4.06173 11.0549 3.94463C11.8292 3.34021 12.5548 2.77381 13.2359 2.28373C14.0492 1.69853 14.7939 1.22609 15.4758 0.930001C16.1579 0.633828 16.7677 0.518316 17.3157 0.633954C17.8607 0.748986 18.3612 1.09637 18.8191 1.76074C19.1274 2.20814 19.4148 2.79714 19.6813 3.55024ZM19.3696 4.13112C19.7529 4.68741 20.1039 5.46264 20.4227 6.50003C20.5054 7.07872 20.5268 7.57751 20.4925 8.00608C20.4282 8.81036 20.1684 9.36146 19.7539 9.73361C19.3372 10.1077 18.7513 10.3126 18.0125 10.3972C17.2739 10.4817 16.3928 10.4449 15.3958 10.3448C14.5609 10.2609 13.6493 10.1332 12.6766 9.99686C12.4881 9.97046 12.2974 9.94373 12.1044 9.91693C10.9167 9.75198 9.64811 9.58486 8.33077 9.47674C8.02393 9.45155 7.71439 9.42956 7.40252 9.41154C7.63891 9.25541 7.87201 9.09746 8.10186 8.93836C9.18864 8.18605 10.2037 7.40703 11.1498 6.67031C11.3035 6.55062 11.4554 6.43209 11.6054 6.31498C12.3797 5.71057 13.1052 5.14417 13.7864 4.6541C14.5997 4.0689 15.3443 3.59646 16.0263 3.30037C16.7084 3.0042 17.3182 2.88869 17.8662 3.00433C18.4112 3.11936 18.9117 3.46675 19.3696 4.13112ZM20.6919 8.02202C20.6989 7.93372 20.7037 7.84275 20.7062 7.74904C20.78 8.29547 20.7981 8.76928 20.7654 9.17893C20.7011 9.98321 20.4413 10.5343 20.0268 10.9065C19.6101 11.2806 19.0242 11.4854 18.2854 11.57C17.5468 11.6546 16.6656 11.6177 15.6687 11.5176C14.8338 11.4338 13.9222 11.306 12.9494 11.1697C12.761 11.1433 12.5702 11.1166 12.3773 11.0898C11.1895 10.9248 9.92097 10.7577 8.60363 10.6496C7.61917 10.5688 6.60683 10.5209 5.57963 10.5315C6.10749 10.2328 6.62066 9.9192 7.11945 9.59658C7.52142 9.61665 7.92001 9.64369 8.31441 9.67607C9.62585 9.78371 10.8898 9.95017 12.0769 10.115C12.2692 10.1417 12.4596 10.1684 12.6478 10.1948C13.6205 10.3311 14.5367 10.4595 15.3758 10.5438C16.3771 10.6443 17.2751 10.6829 18.0353 10.5959C18.7952 10.5089 19.4277 10.2953 19.8875 9.88243C20.3496 9.46762 20.6246 8.86326 20.6919 8.02202ZM6.77299 9.58107C6.24879 9.91389 5.7094 10.2355 5.15442 10.5392C4.18149 10.5649 3.19694 10.6458 2.21173 10.8035C3.14019 10.4488 4.02998 10.0285 4.88236 9.56642C5.51804 9.54955 6.14925 9.55644 6.77299 9.58107ZM20.9647 9.19487C20.972 9.10391 20.9769 9.01012 20.9793 8.91341C21.0569 9.47386 21.0764 9.95853 21.043 10.3764C20.9787 11.1807 20.7189 11.7318 20.3044 12.104C19.8877 12.4781 19.3018 12.683 18.563 12.7675C17.8244 12.8521 16.9433 12.8153 15.9463 12.7151C15.1114 12.6313 14.1998 12.5035 13.227 12.3672C13.0386 12.3408 12.8478 12.3141 12.6549 12.2873C11.4672 12.1224 10.1986 11.9552 8.88125 11.8471C6.83224 11.6789 4.66241 11.6532 2.48936 12.001C3.4352 11.6397 4.34092 11.2103 5.20784 10.7379C6.35505 10.7098 7.48745 10.7586 8.58727 10.8489C9.89871 10.9566 11.1627 11.123 12.3498 11.2879C12.5421 11.3146 12.7324 11.3413 12.9207 11.3676C13.8933 11.5039 14.8095 11.6323 15.6487 11.7166C16.6499 11.8172 17.548 11.8557 18.3081 11.7687C19.0681 11.6817 19.7005 11.4681 20.1604 11.0553C20.6224 10.6405 20.8975 10.0361 20.9647 9.19487ZM-1.45769 11.7867C-2.40353 12.148 -3.30924 12.5774 -4.17616 13.0498C-4.79406 13.0649 -5.40766 13.0578 -6.01418 13.0338C-5.47494 12.6914 -4.91962 12.3609 -4.34779 12.0496C-3.39198 12.0224 -2.42515 11.9416 -1.45769 11.7867ZM-7.57196 13.1381C-7.26512 13.1633 -6.95557 13.1853 -6.64371 13.2033C-6.8801 13.3595 -7.1132 13.5174 -7.34304 13.6765C-8.42983 14.4288 -9.44489 15.2078 -10.391 15.9446C-10.5447 16.0642 -10.6965 16.1828 -10.8465 16.2998C-11.6208 16.9043 -12.3464 17.4707 -13.0275 17.9608C-13.8409 18.546 -14.5855 19.0184 -15.2675 19.3145C-15.9496 19.6107 -16.5594 19.7262 -17.1073 19.6106C-17.6524 19.4955 -18.1529 19.1481 -18.6107 18.4838C-18.9941 17.9275 -19.3451 17.1522 -19.6639 16.1149C-19.7466 15.5362 -19.768 15.0374 -19.7337 14.6088C-19.6694 13.8045 -19.4096 13.2534 -18.9951 12.8813C-18.5784 12.5072 -17.9925 12.3023 -17.2537 12.2177C-16.5151 12.1332 -15.634 12.17 -14.637 12.2701C-13.8021 12.354 -12.8905 12.4817 -11.9178 12.618C-11.7293 12.6444 -11.5386 12.6712 -11.3456 12.6979C-10.1579 12.8629 -8.8893 13.03 -7.57196 13.1381ZM-6.36064 13.0183C-6.76261 12.9982 -7.1612 12.9712 -7.5556 12.9388C-8.86704 12.8312 -10.131 12.6647 -11.3181 12.4998C-11.5104 12.4731 -11.7007 12.4465 -11.8889 12.4201C-12.8616 12.2838 -13.7778 12.1554 -14.617 12.0711C-15.6182 11.9706 -16.5163 11.932 -17.2764 12.019C-18.0364 12.106 -18.6689 12.3196 -19.1287 12.7324C-19.5908 13.1473 -19.8658 13.7516 -19.9331 14.5929C-19.9403 14.6838 -19.9452 14.7776 -19.9476 14.8744C-20.0252 14.3139 -20.0447 13.8292 -20.0113 13.4113C-19.947 12.607 -19.6872 12.0559 -19.2727 11.6838C-18.856 11.3096 -18.2701 11.1048 -17.5313 11.0202C-16.7927 10.9357 -15.9116 10.9725 -14.9146 11.0726C-14.0797 11.1565 -13.1681 11.2842 -12.1954 11.4205C-12.0069 11.4469 -11.8162 11.4736 -11.6232 11.5004C-10.4355 11.6654 -9.16692 11.8325 -7.84958 11.9406C-6.84934 12.0227 -5.8203 12.0709 -4.77615 12.0582C-5.31974 12.3644 -5.84779 12.6866 -6.36064 13.0183ZM-4.40118 11.8509C-5.56638 11.8819 -6.71659 11.8329 -7.83322 11.7413C-9.14466 11.6337 -10.4086 11.4672 -11.5957 11.3023C-11.788 11.2756 -11.9783 11.249 -12.1665 11.2226C-13.1392 11.0863 -14.0555 10.9579 -14.8946 10.8736C-15.8959 10.773 -16.7939 10.7345 -17.5541 10.8215C-18.314 10.9085 -18.9465 11.1221 -19.4063 11.5349C-19.8684 11.9497 -20.1434 12.5541 -20.2107 13.3953C-20.2177 13.4836 -20.2225 13.5746 -20.225 13.6683C-20.2988 13.1219 -20.3169 12.6481 -20.2842 12.2384C-20.2198 11.4341 -19.9601 10.8831 -19.5456 10.5109C-19.1289 10.1368 -18.543 9.93191 -17.8042 9.84734C-17.0656 9.7628 -16.1845 9.79961 -15.1875 9.89975C-14.3526 9.98361 -13.441 10.1113 -12.4682 10.2477C-12.2798 10.2741 -12.089 10.3008 -11.8961 10.3276C-10.7084 10.4925 -9.43978 10.6596 -8.12244 10.7678C-6.07343 10.936 -3.9036 10.9617 -1.73055 10.6139C-2.659 10.9685 -3.54879 11.3888 -4.40118 11.8509ZM-1.18006 12.9842C-3.2359 13.7695 -5.10215 14.8767 -6.79256 16.0469C-7.87935 16.7992 -8.89441 17.5782 -9.84055 18.3149C-9.99422 18.4346 -10.146 18.5531 -10.296 18.6702C-11.0703 19.2746 -11.7959 19.8411 -12.4771 20.3311C-13.2904 20.9164 -14.035 21.3888 -14.717 21.6849C-15.3991 21.981 -16.0089 22.0966 -16.5569 21.9809C-17.1019 21.8659 -17.6024 21.5185 -18.0603 20.8541C-18.3757 20.3965 -18.6691 19.7907 -18.9408 19.0126C-18.8004 19.298 -18.6544 19.5498 -18.5026 19.7701C-18.0237 20.465 -17.4833 20.8509 -16.8758 20.9791C-16.2711 21.1067 -15.6166 20.9754 -14.9149 20.6708C-14.2131 20.3661 -13.4547 19.8837 -12.6379 19.296C-11.9533 18.8034 -11.224 18.2341 -10.4498 17.6297C-10.3 17.5128 -10.1485 17.3945 -9.9953 17.2752C-9.04965 16.5389 -8.03827 15.7628 -6.95635 15.0138C-6.0603 14.3935 -5.11652 13.7924 -4.12274 13.2485C-3.14982 13.2228 -2.16527 13.1419 -1.18006 12.9842ZM-6.306 13.2212C-5.72658 13.2491 -5.13973 13.2624 -4.54796 13.2563C-5.42914 13.7548 -6.26939 14.295 -7.07018 14.8494C-8.15697 15.6017 -9.17203 16.3807 -10.1182 17.1174C-10.2718 17.2371 -10.4237 17.3556 -10.5736 17.4727C-11.3479 18.0771 -12.0735 18.6435 -12.7547 19.1336C-13.568 19.7188 -14.3127 20.1913 -14.9946 20.4874C-15.6767 20.7835 -16.2865 20.899 -16.8345 20.7834C-17.3795 20.6684 -17.88 20.321 -18.3379 19.6566C-18.6462 19.2092 -18.9336 18.6202 -19.2001 17.8671C-19.0639 18.1412 -18.9224 18.384 -18.7754 18.5973C-18.2965 19.2921 -17.7562 19.678 -17.1486 19.8062C-16.544 19.9339 -15.8894 19.8026 -15.1878 19.498C-14.486 19.1932 -13.7275 18.7108 -12.9107 18.1231C-12.2261 17.6305 -11.4969 17.0612 -10.7226 16.4569C-10.5728 16.3399 -10.4213 16.2216 -10.2682 16.1024C-9.32251 15.366 -8.31113 14.5899 -7.22921 13.841C-6.92693 13.6317 -6.61923 13.4247 -6.306 13.2212ZM5.25734 9.35915C6.1548 8.85362 7.00992 8.30453 7.82423 7.74084C8.91102 6.98853 9.92608 6.20951 10.8722 5.47279C11.0259 5.35311 11.1778 5.23458 11.3278 5.11747C12.102 4.51306 12.8276 3.94666 13.5087 3.45659C14.3221 2.87138 15.0667 2.39894 15.7487 2.10285C16.4308 1.80668 17.0406 1.69117 17.5885 1.80681C18.1336 1.92184 18.6341 2.26923 19.0919 2.9336C19.4073 3.39125 19.7008 3.99709 19.9725 4.77517C19.8321 4.48981 19.6861 4.23794 19.5342 4.01763C19.0554 3.32273 18.515 2.93685 17.9075 2.80864C17.3028 2.68103 16.6482 2.81228 15.9466 3.11692C15.2448 3.42164 14.4863 3.90405 13.6695 4.49176C12.9849 4.98436 12.2556 5.55369 11.4814 6.1581C11.3316 6.27502 11.1801 6.39326 11.027 6.5125C10.0813 7.24884 9.06994 8.02497 7.98802 8.77391C7.68575 8.98316 7.37804 9.19023 7.06481 9.39366C6.46926 9.36504 5.86587 9.35177 5.25734 9.35915Z" stroke="white" stroke-width="0.2"/>
<path d="M19.8146 7.685C19.6784 7.4109 19.5369 7.16811 19.3899 6.95487C18.911 6.25998 18.3707 5.8741 17.7631 5.74588C17.1585 5.61827 16.5039 5.74953 15.8023 6.05416C15.1005 6.35888 14.342 6.8413 13.5252 7.42901C12.8406 7.9216 12.1113 8.49093 11.337 9.09534C11.1873 9.21227 11.0358 9.3305 10.8827 9.44975C9.93701 10.1861 8.92563 10.9622 7.84371 11.7112C6.9333 12.3414 5.97361 12.9519 4.96228 13.5026C4.00647 13.5297 3.03964 13.6105 2.07218 13.7654C4.12802 12.9801 5.99427 11.8729 7.68468 10.7028C8.77147 9.95044 9.78653 9.17142 10.7327 8.4347C10.8864 8.31502 11.0382 8.1965 11.1882 8.07939C11.9625 7.47498 12.6881 6.90857 13.3692 6.4185C14.1825 5.83329 14.9272 5.36086 15.6091 5.06477C16.2912 4.76859 16.901 4.65308 17.449 4.76872C17.994 4.88375 18.4945 5.23114 18.9524 5.89551C19.2607 6.3429 19.5481 6.9319 19.8146 7.685ZM19.5029 8.26588C19.8862 8.82217 20.2372 9.59739 20.5561 10.6348C20.6387 11.2135 20.6601 11.7123 20.6258 12.1408C20.5615 12.9451 20.3018 13.4962 19.8872 13.8684C19.4705 14.2425 18.8846 14.4474 18.1458 14.5319C17.4072 14.6165 16.5261 14.5797 15.5291 14.4795C14.6942 14.3957 13.7827 14.2679 12.8099 14.1316C12.6214 14.1052 12.4307 14.0785 12.2377 14.0517C11.05 13.8867 9.78142 13.7196 8.46408 13.6115C8.15724 13.5863 7.84769 13.5643 7.53583 13.5463C7.77222 13.3902 8.00531 13.2322 8.23516 13.0731C9.32195 12.3208 10.337 11.5418 11.2832 10.8051C11.4369 10.6854 11.5887 10.5669 11.7387 10.4497C12.513 9.84534 13.2386 9.27894 13.9197 8.78887C14.733 8.20366 15.4777 7.73123 16.1596 7.43514C16.8417 7.13896 17.4515 7.02345 17.9995 7.13909C18.5445 7.25412 19.045 7.60151 19.5029 8.26588ZM20.8252 12.1568C20.8322 12.0685 20.837 11.9775 20.8395 11.8838C20.9133 12.4302 20.9314 12.904 20.8987 13.3137C20.8344 14.118 20.5746 14.6691 20.1601 15.0412C19.7434 15.4153 19.1575 15.6202 18.4187 15.7048C17.6801 15.7893 16.799 15.7525 15.802 15.6524C14.9671 15.5685 14.0555 15.4408 13.0827 15.3045C12.8943 15.2781 12.7035 15.2513 12.5106 15.2245C11.3229 15.0596 10.0543 14.8925 8.73694 14.7844C7.75248 14.7036 6.74013 14.6556 5.71294 14.6662C6.2408 14.3676 6.75397 14.054 7.25276 13.7313C7.65473 13.7514 8.05332 13.7785 8.44772 13.8108C9.75916 13.9185 11.0231 14.0849 12.2102 14.2498C12.4025 14.2765 12.5928 14.3032 12.781 14.3295C13.7537 14.4658 14.6699 14.5942 15.5091 14.6785C16.5104 14.7791 17.4084 14.8176 18.1686 14.7306C18.9285 14.6436 19.561 14.43 20.0208 14.0172C20.4829 13.6024 20.7579 12.998 20.8252 12.1568ZM6.9063 13.7158C6.3821 14.0487 5.84271 14.3702 5.28772 14.674C4.3148 14.6996 3.33025 14.7806 2.34504 14.9383C3.27349 14.5836 4.16328 14.1633 5.01567 13.7012C5.65134 13.6843 6.28256 13.6912 6.9063 13.7158ZM21.098 13.3296C21.1053 13.2387 21.1102 13.1449 21.1126 13.0482C21.1902 13.6086 21.2097 14.0933 21.1763 14.5112C21.112 15.3155 20.8522 15.8666 20.4377 16.2387C20.021 16.6129 19.4351 16.8177 18.6963 16.9023C17.9577 16.9868 17.0766 16.95 16.0796 16.8499C15.2447 16.766 14.3331 16.6383 13.3603 16.502C13.1719 16.4756 12.9812 16.4489 12.7882 16.4221C11.6005 16.2571 10.3319 16.09 9.01456 15.9819C6.96555 15.8137 4.79571 15.7879 2.62266 16.1358C3.56851 15.7745 4.47422 15.3451 5.34115 14.8727C6.48836 14.8446 7.62076 14.8934 8.72058 14.9837C10.032 15.0913 11.296 15.2578 12.4831 15.4226C12.6754 15.4493 12.8657 15.476 13.0538 15.5024C14.0266 15.6387 14.9428 15.7671 15.782 15.8514C16.7832 15.9519 17.6813 15.9905 18.4414 15.9035C19.2014 15.8165 19.8338 15.6029 20.2937 15.19C20.7557 14.7752 21.0308 14.1709 21.098 13.3296ZM-1.32438 15.9215C-2.27022 16.2828 -3.17594 16.7122 -4.04286 17.1846C-4.66075 17.1997 -5.27435 17.1925 -5.88087 17.1686C-5.34164 16.8262 -4.78632 16.4957 -4.21448 16.1843C-3.25867 16.1572 -2.29184 16.0763 -1.32438 15.9215ZM-7.43865 17.2729C-7.13182 17.2981 -6.82227 17.3201 -6.51041 17.3381C-6.74679 17.4942 -6.97989 17.6522 -7.20974 17.8113C-8.29653 18.5636 -9.31159 19.3426 -10.2577 20.0793C-10.4114 20.199 -10.5632 20.3175 -10.7132 20.4346C-11.4875 21.039 -12.2131 21.6055 -12.8942 22.0955C-13.7076 22.6807 -14.4522 23.1532 -15.1342 23.4493C-15.8163 23.7454 -16.4261 23.861 -16.974 23.7453C-17.5191 23.6303 -18.0196 23.2829 -18.4774 22.6185C-18.8608 22.0622 -19.2118 21.287 -19.5306 20.2496C-19.6132 19.6709 -19.6347 19.1721 -19.6004 18.7436C-19.5361 17.9393 -19.2763 17.3882 -18.8618 17.016C-18.4451 16.6419 -17.8592 16.437 -17.1204 16.3525C-16.3818 16.2679 -15.5007 16.3047 -14.5037 16.4049C-13.6688 16.4887 -12.7572 16.6165 -11.7845 16.7528C-11.596 16.7792 -11.4053 16.8059 -11.2123 16.8327C-10.0246 16.9977 -8.756 17.1648 -7.43865 17.2729ZM-6.22734 17.1531C-6.6293 17.133 -7.02789 17.106 -7.42229 17.0736C-8.73374 16.9659 -9.99768 16.7995 -11.1848 16.6346C-11.3771 16.6079 -11.5674 16.5812 -11.7556 16.5549C-12.7283 16.4186 -13.6445 16.2902 -14.4837 16.2059C-15.4849 16.1053 -16.383 16.0668 -17.1431 16.1538C-17.9031 16.2408 -18.5356 16.4544 -18.9954 16.8672C-19.4575 17.282 -19.7325 17.8864 -19.7998 18.7276C-19.807 18.8186 -19.8119 18.9124 -19.8143 19.0091C-19.8919 18.4487 -19.9114 17.964 -19.878 17.546C-19.8137 16.7418 -19.5539 16.1907 -19.1394 15.8185C-18.7227 15.4444 -18.1368 15.2395 -17.398 15.155C-16.6594 15.0704 -15.7783 15.1072 -14.7813 15.2074C-13.9464 15.2912 -13.0348 15.419 -12.062 15.5553C-11.8736 15.5817 -11.6829 15.6084 -11.4899 15.6352C-10.3022 15.8001 -9.03362 15.9673 -7.71628 16.0754C-6.71603 16.1575 -5.68699 16.2056 -4.64285 16.193C-5.18643 16.4992 -5.71448 16.8213 -6.22734 17.1531ZM-4.26787 15.9857C-5.43307 16.0166 -6.58329 15.9677 -7.69992 15.8761C-9.01136 15.7684 -10.2753 15.602 -11.4624 15.4371C-11.6547 15.4104 -11.845 15.3837 -12.0332 15.3574C-13.0059 15.221 -13.9222 15.0927 -14.7613 15.0084C-15.7626 14.9078 -16.6606 14.8693 -17.4208 14.9563C-18.1807 15.0432 -18.8132 15.2568 -19.273 15.6697C-19.7351 16.0845 -20.0101 16.6889 -20.0774 17.5301C-20.0844 17.6184 -20.0892 17.7094 -20.0917 17.8031C-20.1655 17.2566 -20.1836 16.7828 -20.1509 16.3732C-20.0865 15.5689 -19.8268 15.0178 -19.4123 14.6457C-18.9956 14.2715 -18.4097 14.0667 -17.6709 13.9821C-16.9323 13.8976 -16.0512 13.9344 -15.0542 14.0345C-14.2193 14.1184 -13.3077 14.2461 -12.3349 14.3824C-12.1465 14.4088 -11.9557 14.4356 -11.7628 14.4623C-10.5751 14.6273 -9.30648 14.7944 -7.98914 14.9025C-5.94013 15.0707 -3.77029 15.0965 -1.59724 14.7486C-2.5257 15.1033 -3.41549 15.5236 -4.26787 15.9857ZM-1.04675 17.119C-3.10259 17.9043 -4.96885 19.0115 -6.65926 20.1817C-7.74605 20.934 -8.7611 21.713 -9.70725 22.4497C-9.86092 22.5694 -10.0127 22.6879 -10.1627 22.805C-10.937 23.4094 -11.6626 23.9758 -12.3438 24.4659C-13.1571 25.0511 -13.9017 25.5236 -14.5837 25.8196C-15.2658 26.1158 -15.8756 26.2313 -16.4236 26.1157C-16.9686 26.0007 -17.4691 25.6533 -17.927 24.9889C-18.2423 24.5313 -18.5358 23.9254 -18.8075 23.1474C-18.6671 23.4327 -18.5211 23.6846 -18.3693 23.9049C-17.8904 24.5998 -17.35 24.9856 -16.7425 25.1139C-16.1378 25.2415 -15.4833 25.1102 -14.7816 24.8056C-14.0798 24.5009 -13.3214 24.0184 -12.5046 23.4307C-11.82 22.9382 -11.0907 22.3689 -10.3165 21.7645C-10.1667 21.6475 -10.0152 21.5293 -9.862 21.41C-8.91634 20.6737 -7.90497 19.8975 -6.82305 19.1486C-5.927 18.5283 -4.98321 17.9272 -3.98944 17.3833C-3.01651 17.3576 -2.03196 17.2767 -1.04675 17.119ZM-6.1727 17.356C-5.59327 17.3838 -5.00643 17.3971 -4.41466 17.391C-5.29584 17.8896 -6.13609 18.4298 -6.93688 18.9841C-8.02367 19.7365 -9.03873 20.5155 -9.98487 21.2522C-10.1385 21.3718 -10.2903 21.4903 -10.4403 21.6074C-11.2146 22.2119 -11.9402 22.7783 -12.6214 23.2684C-13.4347 23.8536 -14.1794 24.326 -14.8613 24.6221C-15.5434 24.9183 -16.1532 25.0338 -16.7012 24.9182C-17.2462 24.8031 -17.7467 24.4558 -18.2046 23.7914C-18.5129 23.344 -18.8003 22.755 -19.0668 22.0019C-18.9306 22.276 -18.7891 22.5188 -18.6421 22.732C-18.1632 23.4269 -17.6229 23.8128 -17.0153 23.941C-16.4107 24.0686 -15.7561 23.9374 -15.0545 23.6327C-14.3527 23.328 -13.5942 22.8456 -12.7774 22.2579C-12.0928 21.7653 -11.3635 21.196 -10.5893 20.5916C-10.4395 20.4747 -10.288 20.3564 -10.1349 20.2371C-9.1892 19.5008 -8.17783 18.7247 -7.09591 17.9757C-6.79363 17.7665 -6.48592 17.5594 -6.1727 17.356ZM5.39065 13.4939C6.28811 12.9884 7.14323 12.4393 7.95754 11.8756C9.04433 11.1233 10.0594 10.3443 11.0055 9.60755C11.1592 9.48787 11.3111 9.36934 11.4611 9.25224C12.2354 8.64782 12.9609 8.08142 13.642 7.59135C14.4554 7.00614 15.2 6.53371 15.882 6.23762C16.5641 5.94145 17.1739 5.82593 17.7218 5.94157C18.2669 6.0566 18.7674 6.40399 19.2253 7.06836C19.5406 7.52601 19.8341 8.13184 20.1058 8.90991C19.9654 8.62456 19.8194 8.3727 19.6676 8.15239C19.1887 7.4575 18.6483 7.07162 18.0408 6.9434C17.4361 6.81579 16.7815 6.94705 16.0799 7.25168C15.3781 7.5564 14.6197 8.03882 13.8029 8.62652C13.1182 9.11912 12.3889 9.68845 11.6147 10.2929C11.4649 10.4098 11.3134 10.528 11.1603 10.6473C10.2146 11.3836 9.20325 12.1597 8.12133 12.9087C7.81905 13.1179 7.51135 13.325 7.19812 13.5284C6.60257 13.4998 5.99917 13.4865 5.39065 13.4939Z" stroke="white" stroke-width="0.2"/>
<path d="M20.8815 10.8842C20.7453 10.6101 20.6038 10.3673 20.4568 10.1541C19.9779 9.4592 19.4376 9.07332 18.83 8.9451C18.2254 8.81749 17.5708 8.94875 16.8692 9.25338C16.1674 9.5581 15.4089 10.0405 14.5921 10.6282C13.9075 11.1208 13.1783 11.6901 12.404 12.2945C12.2542 12.4114 12.1027 12.5297 11.9495 12.649C11.0039 13.3853 9.99252 14.1614 8.9106 14.9104C8.00018 15.5406 7.0405 16.1511 6.02917 16.7018C5.07336 16.729 4.10653 16.8098 3.13907 16.9646C5.19491 16.1793 7.06116 15.0721 8.75157 13.902C9.83836 13.1497 10.8534 12.3706 11.7996 11.6339C11.9533 11.5142 12.1051 11.3957 12.2551 11.2786C13.0294 10.6742 13.755 10.1078 14.4361 9.61772C15.2494 9.03251 15.9941 8.56008 16.676 8.26399C17.3581 7.96781 17.9679 7.8523 18.5159 7.96794C19.0609 8.08297 19.5614 8.43036 20.0193 9.09473C20.3276 9.54213 20.615 10.1311 20.8815 10.8842ZM20.5698 11.4651C20.9531 12.0214 21.3041 12.7966 21.6229 13.834C21.7056 14.4127 21.727 14.9115 21.6927 15.3401C21.6284 16.1443 21.3686 16.6954 20.9541 17.0676C20.5374 17.4417 19.9515 17.6466 19.2127 17.7311C18.4741 17.8157 17.593 17.7789 16.596 17.6787C15.7611 17.5949 14.8495 17.4672 13.8768 17.3308C13.6883 17.3044 13.4976 17.2777 13.3046 17.2509C12.1169 17.086 10.8483 16.9188 9.53096 16.8107C9.22413 16.7855 8.91458 16.7635 8.60272 16.7455C8.8391 16.5894 9.0722 16.4314 9.30205 16.2723C10.3888 15.52 11.4039 14.741 12.35 14.0043C12.5037 13.8846 12.6556 13.7661 12.8056 13.649C13.5799 13.0446 14.3054 12.4782 14.9865 11.9881C15.7999 11.4029 16.5445 10.9304 17.2265 10.6344C17.9086 10.3382 18.5184 10.2227 19.0663 10.3383C19.6114 10.4533 20.1119 10.8007 20.5698 11.4651ZM21.8921 15.356C21.8991 15.2677 21.9039 15.1767 21.9064 15.083C21.9802 15.6295 21.9983 16.1033 21.9656 16.5129C21.9012 17.3172 21.6415 17.8683 21.227 18.2404C20.8103 18.6146 20.2244 18.8194 19.4856 18.904C18.747 18.9885 17.8658 18.9517 16.8689 18.8516C16.034 18.7677 15.1224 18.64 14.1496 18.5037C13.9612 18.4773 13.7704 18.4506 13.5775 18.4238C12.3897 18.2588 11.1212 18.0917 9.80383 17.9836C8.81937 17.9028 7.80702 17.8548 6.77983 17.8654C7.30768 17.5668 7.82085 17.2532 8.31965 16.9306C8.72161 16.9506 9.1202 16.9777 9.5146 17.0101C10.826 17.1177 12.09 17.2841 13.2771 17.449C13.4694 17.4757 13.6598 17.5024 13.848 17.5288C14.8207 17.6651 15.7369 17.7935 16.576 17.8777C17.5773 17.9783 18.4753 18.0169 19.2355 17.9298C19.9954 17.8429 20.6279 17.6293 21.0877 17.2164C21.5498 16.8016 21.8248 16.1972 21.8921 15.356ZM7.97318 16.9151C7.44899 17.2479 6.9096 17.5695 6.35461 17.8732C5.38169 17.8989 4.39714 17.9798 3.41193 18.1375C4.34038 17.7828 5.23017 17.3625 6.08256 16.9004C6.71823 16.8835 7.34945 16.8904 7.97318 16.9151ZM22.1649 16.5289C22.1722 16.4379 22.1771 16.3441 22.1795 16.2474C22.2571 16.8078 22.2766 17.2925 22.2432 17.7104C22.1789 18.5147 21.9191 19.0658 21.5046 19.438C21.0879 19.8121 20.502 20.0169 19.7632 20.1015C19.0246 20.1861 18.1435 20.1493 17.1465 20.0491C16.3116 19.9653 15.4 19.8375 14.4272 19.7012C14.2388 19.6748 14.048 19.6481 13.8551 19.6213C12.6674 19.4563 11.3988 19.2892 10.0814 19.1811C8.03244 19.0129 5.8626 18.9872 3.68955 19.335C4.63539 18.9737 5.54111 18.5443 6.40804 18.0719C7.55525 18.0438 8.68765 18.0926 9.78747 18.1829C11.0989 18.2905 12.3629 18.457 13.55 18.6219C13.7423 18.6486 13.9326 18.6752 14.1209 18.7016C15.0935 18.8379 16.0097 18.9663 16.8489 19.0506C17.8501 19.1512 18.7482 19.1897 19.5083 19.1027C20.2683 19.0157 20.9007 18.8021 21.3606 18.3893C21.8226 17.9745 22.0977 17.3701 22.1649 16.5289ZM-0.25749 19.1207C-1.20333 19.482 -2.10905 19.9114 -2.97597 20.3838C-3.59386 20.3989 -4.20746 20.3917 -4.81398 20.3678C-4.27474 20.0254 -3.71942 19.6949 -3.14759 19.3835C-2.19178 19.3564 -1.22495 19.2756 -0.25749 19.1207ZM-6.37176 20.4721C-6.06493 20.4973 -5.75538 20.5193 -5.44352 20.5373C-5.6799 20.6935 -5.913 20.8514 -6.14285 21.0105C-7.22964 21.7628 -8.2447 22.5418 -9.19084 23.2786C-9.34452 23.3982 -9.49635 23.5167 -9.64634 23.6338C-10.4206 24.2383 -11.1462 24.8047 -11.8273 25.2948C-12.6407 25.88 -13.3853 26.3524 -14.0673 26.6485C-14.7494 26.9447 -15.3592 27.0602 -15.9071 26.9445C-16.4522 26.8295 -16.9527 26.4821 -17.4105 25.8177C-17.7939 25.2615 -18.1449 24.4862 -18.4637 23.4488C-18.5464 22.8701 -18.5678 22.3714 -18.5335 21.9428C-18.4692 21.1385 -18.2094 20.5874 -17.7949 20.2153C-17.3782 19.8411 -16.7923 19.6363 -16.0535 19.5517C-15.3149 19.4672 -14.4338 19.504 -13.4368 19.6041C-12.6019 19.688 -11.6903 19.8157 -10.7176 19.952C-10.5291 19.9784 -10.3384 20.0051 -10.1454 20.0319C-8.95768 20.1969 -7.6891 20.364 -6.37176 20.4721ZM-5.16045 20.3523C-5.56241 20.3322 -5.961 20.3052 -6.3554 20.2728C-7.66684 20.1652 -8.93079 19.9987 -10.1179 19.8338C-10.3102 19.8071 -10.5005 19.7805 -10.6887 19.7541C-11.6614 19.6178 -12.5776 19.4894 -13.4168 19.4051C-14.418 19.3045 -15.3161 19.266 -16.0762 19.353C-16.8362 19.44 -17.4687 19.6536 -17.9285 20.0664C-18.3906 20.4812 -18.6656 21.0856 -18.7329 21.9268C-18.7401 22.0178 -18.745 22.1116 -18.7474 22.2083C-18.825 21.6479 -18.8445 21.1632 -18.8111 20.7453C-18.7468 19.941 -18.4871 19.3899 -18.0725 19.0177C-17.6558 18.6436 -17.0699 18.4388 -16.3311 18.3542C-15.5925 18.2696 -14.7114 18.3064 -13.7144 18.4066C-12.8795 18.4904 -11.9679 18.6182 -10.9952 18.7545C-10.8067 18.7809 -10.616 18.8076 -10.423 18.8344C-9.2353 18.9994 -7.96673 19.1665 -6.64939 19.2746C-5.64914 19.3567 -4.6201 19.4049 -3.57596 19.3922C-4.11954 19.6984 -4.64759 20.0206 -5.16045 20.3523ZM-3.20098 19.1849C-4.36618 19.2159 -5.5164 19.1669 -6.63303 19.0753C-7.94447 18.9676 -9.20841 18.8012 -10.3955 18.6363C-10.5878 18.6096 -10.7781 18.5829 -10.9664 18.5566C-11.939 18.4203 -12.8553 18.2919 -13.6944 18.2076C-14.6957 18.107 -15.5937 18.0685 -16.3539 18.1555C-17.1138 18.2425 -17.7463 18.4561 -18.2061 18.8689C-18.6682 19.2837 -18.9432 19.8881 -19.0105 20.7293C-19.0175 20.8176 -19.0223 20.9086 -19.0248 21.0023C-19.0986 20.4559 -19.1167 19.9821 -19.084 19.5724C-19.0197 18.7681 -18.7599 18.217 -18.3454 17.8449C-17.9287 17.4708 -17.3428 17.2659 -16.604 17.1813C-15.8654 17.0968 -14.9843 17.1336 -13.9873 17.2337C-13.1524 17.3176 -12.2408 17.4453 -11.268 17.5816C-11.0796 17.608 -10.8888 17.6348 -10.6959 17.6616C-9.50816 17.8265 -8.23959 17.9936 -6.92225 18.1018C-4.87324 18.2699 -2.7034 18.2957 -0.530351 17.9478C-1.45881 18.3025 -2.3486 18.7228 -3.20098 19.1849ZM0.0201352 20.3182C-2.0357 21.1035 -3.90196 22.2107 -5.59237 23.3809C-6.67915 24.1332 -7.69421 24.9122 -8.64036 25.6489C-8.79403 25.7686 -8.94584 25.8871 -9.09583 26.0042C-9.87013 26.6086 -10.5957 27.175 -11.2769 27.6651C-12.0902 28.2503 -12.8349 28.7228 -13.5168 29.0189C-14.1989 29.315 -14.8087 29.4305 -15.3567 29.3149C-15.9017 29.1999 -16.4022 28.8525 -16.8601 28.1881C-17.1755 27.7305 -17.4689 27.1247 -17.7406 26.3466C-17.6002 26.6319 -17.4542 26.8838 -17.3024 27.1041C-16.8235 27.799 -16.2831 28.1849 -15.6756 28.3131C-15.0709 28.4407 -14.4164 28.3094 -13.7148 28.0048C-13.0129 27.7001 -12.2545 27.2177 -11.4377 26.63C-10.7531 26.1374 -10.0238 25.5681 -9.24959 24.9637C-9.09978 24.8468 -8.94828 24.7285 -8.7951 24.6092C-7.84945 23.8729 -6.83808 23.0967 -5.75616 22.3478C-4.86011 21.7275 -3.91632 21.1264 -2.92255 20.5825C-1.94962 20.5568 -0.965075 20.4759 0.0201352 20.3182ZM-5.1058 20.5552C-4.52638 20.583 -3.93954 20.5964 -3.34777 20.5903C-4.22895 21.0888 -5.0692 21.629 -5.86999 22.1834C-6.95678 22.9357 -7.97184 23.7147 -8.91798 24.4514C-9.07165 24.5711 -9.22346 24.6896 -9.37344 24.8067C-10.1477 25.4111 -10.8733 25.9775 -11.5545 26.4676C-12.3678 27.0528 -13.1125 27.5253 -13.7944 27.8213C-14.4765 28.1175 -15.0863 28.233 -15.6343 28.1174C-16.1793 28.0024 -16.6798 27.655 -17.1377 26.9906C-17.446 26.5432 -17.7334 25.9542 -17.9999 25.2011C-17.8637 25.4752 -17.7222 25.718 -17.5752 25.9312C-17.0963 26.6261 -16.556 27.012 -15.9484 27.1402C-15.3438 27.2678 -14.6892 27.1366 -13.9876 26.8319C-13.2858 26.5272 -12.5273 26.0448 -11.7105 25.4571C-11.0259 24.9645 -10.2967 24.3952 -9.52244 23.7908C-9.37263 23.6739 -9.22114 23.5556 -9.06796 23.4364C-8.12231 22.7 -7.11094 21.9239 -6.02902 21.175C-5.72674 20.9657 -5.41903 20.7586 -5.1058 20.5552ZM6.45753 16.6931C7.355 16.1876 8.21012 15.6385 9.02443 15.0748C10.1112 14.3225 11.1263 13.5435 12.0724 12.8068C12.2261 12.6871 12.378 12.5686 12.528 12.4515C13.3022 11.847 14.0278 11.2806 14.7089 10.7906C15.5223 10.2054 16.2669 9.73293 16.9489 9.43684C17.631 9.14066 18.2408 9.02515 18.7887 9.14079C19.3338 9.25582 19.8343 9.60321 20.2921 10.2676C20.6075 10.7252 20.901 11.3311 21.1727 12.1092C21.0323 11.8238 20.8863 11.5719 20.7344 11.3516C20.2556 10.6567 19.7152 10.2708 19.1076 10.1426C18.503 10.015 17.8484 10.1463 17.1468 10.4509C16.445 10.7556 15.6865 11.238 14.8697 11.8257C14.1851 12.3183 13.4558 12.8877 12.6816 13.4921C12.5318 13.609 12.3803 13.7272 12.2272 13.8465C11.2815 14.5828 10.2701 15.359 9.18822 16.1079C8.88594 16.3171 8.57823 16.5242 8.265 16.7276C7.66945 16.699 7.06606 16.6858 6.45753 16.6931Z" stroke="white" stroke-width="0.2"/>
</g>
<path d="M28 7.26095C28 7.23292 28.0148 7.21891 28.0444 7.21891H28.1666L29.9489 7.18214C30.1636 7.17513 30.3968 7.17163 30.6485 7.17163H31.3425C31.9866 7.17163 32.4697 7.1944 32.7917 7.23993C33.1174 7.28546 33.4358 7.33975 33.7467 7.4028C34.0613 7.46235 34.3945 7.6007 34.7461 7.81786C35.1015 8.03503 35.4087 8.29772 35.6678 8.60595C36.2156 9.26445 36.4896 9.97548 36.4896 10.7391C36.4896 11.5026 36.2786 12.1874 35.8566 12.7933C35.2495 13.6725 34.3704 14.2469 33.2192 14.5166C32.8528 14.6007 32.4771 14.6427 32.0921 14.6427H28.0444C28.0148 14.6427 28 14.6287 28 14.6007V14.4536C28 14.4256 28.0148 14.4116 28.0444 14.4116H28.1666C28.8403 14.4116 29.1771 14.2084 29.1771 13.8021V8.04378C29.1771 7.84764 29.0975 7.70053 28.9383 7.60245C28.7792 7.50088 28.5997 7.45009 28.3998 7.45009H28.0444C28.0148 7.45009 28 7.43608 28 7.40806V7.26095ZM30.3986 7.41856C30.3061 7.41856 30.2598 7.46585 30.2598 7.56042V13.986C30.2598 14.2452 30.5171 14.38 31.0316 14.3905C31.1834 14.394 31.3425 14.3958 31.5091 14.3958C32.6899 14.3958 33.6171 14.0823 34.2908 13.4553C34.9682 12.8284 35.3069 11.9947 35.3069 10.9545C35.3069 9.91068 34.9941 9.0613 34.3686 8.4063C33.7467 7.74781 32.9268 7.41856 31.9089 7.41856H30.3986Z" fill="white"/>
<path d="M37.817 11.8739C37.7541 11.8739 37.7226 12.0018 37.7226 12.2574C37.7226 12.8004 37.8929 13.2557 38.2334 13.6235C38.574 13.9912 38.996 14.1751 39.4994 14.1751C40.0065 14.1751 40.4933 13.9685 40.9597 13.5552C40.9671 13.5482 40.9763 13.5447 40.9874 13.5447H41.0152C41.0374 13.5447 41.0577 13.5622 41.0763 13.5972C41.0985 13.6287 41.1188 13.6497 41.1373 13.6602C40.7079 14.1541 40.2027 14.4956 39.6215 14.6848C39.4216 14.7513 39.1959 14.7846 38.9441 14.7846C38.6924 14.7846 38.437 14.7198 38.1779 14.5902C37.9188 14.4571 37.6967 14.2837 37.5116 14.0701C37.1193 13.6252 36.9231 13.0718 36.9231 12.4098C36.9231 11.7443 37.1359 11.1384 37.5616 10.5919C37.991 10.0455 38.5795 9.77233 39.3273 9.77233C39.864 9.77233 40.3026 10 40.6432 10.4553C40.9837 10.9072 41.154 11.3047 41.154 11.648C41.154 11.7986 41.1151 11.8739 41.0374 11.8739H37.817ZM37.8781 11.3695C37.8781 11.4361 37.9114 11.4694 37.978 11.4694H40.0713C40.1675 11.4694 40.2156 11.4151 40.2156 11.3065C40.2156 11.0543 40.0953 10.7968 39.8547 10.5342C39.6178 10.268 39.3569 10.1349 39.0719 10.1349C38.7942 10.1349 38.5407 10.2539 38.3112 10.4921C38.0854 10.7303 37.941 11.0018 37.8781 11.3065V11.3695Z" fill="white"/>
<path d="M42.5259 11.8739C42.4629 11.8739 42.4315 12.0018 42.4315 12.2574C42.4315 12.8004 42.6017 13.2557 42.9423 13.6235C43.2828 13.9912 43.7048 14.1751 44.2082 14.1751C44.7153 14.1751 45.2021 13.9685 45.6685 13.5552C45.6759 13.5482 45.6852 13.5447 45.6963 13.5447H45.724C45.7462 13.5447 45.7666 13.5622 45.7851 13.5972C45.8073 13.6287 45.8277 13.6497 45.8462 13.6602C45.4168 14.1541 44.9115 14.4956 44.3304 14.6848C44.1305 14.7513 43.9047 14.7846 43.653 14.7846C43.4013 14.7846 43.1459 14.7198 42.8868 14.5902C42.6277 14.4571 42.4056 14.2837 42.2205 14.0701C41.8281 13.6252 41.6319 13.0718 41.6319 12.4098C41.6319 11.7443 41.8448 11.1384 42.2705 10.5919C42.6998 10.0455 43.2884 9.77233 44.0361 9.77233C44.5728 9.77233 45.0115 10 45.352 10.4553C45.6926 10.9072 45.8628 11.3047 45.8628 11.648C45.8628 11.7986 45.824 11.8739 45.7462 11.8739H42.5259ZM42.5869 11.3695C42.5869 11.4361 42.6203 11.4694 42.6869 11.4694H44.7801C44.8764 11.4694 44.9245 11.4151 44.9245 11.3065C44.9245 11.0543 44.8042 10.7968 44.5636 10.5342C44.3267 10.268 44.0657 10.1349 43.7807 10.1349C43.5031 10.1349 43.2495 10.2539 43.02 10.4921C42.7942 10.7303 42.6499 11.0018 42.5869 11.3065V11.3695Z" fill="white"/>
<path d="M50.5217 14.0911C50.0109 14.5534 49.4371 14.7846 48.8005 14.7846C48.571 14.7846 48.2582 14.7443 47.8621 14.6637C47.7992 14.6637 47.764 14.6848 47.7566 14.7268C47.7529 14.7688 47.7492 14.8126 47.7455 14.8581V17.1016C47.7455 17.3643 47.9065 17.5394 48.2286 17.627C48.3692 17.662 48.5006 17.6865 48.6228 17.7005C48.745 17.718 48.8227 17.7338 48.856 17.7478C48.893 17.7618 48.9115 17.7881 48.9115 17.8266C48.9115 17.8687 48.893 17.8932 48.856 17.9002H46.0743C46.0373 17.8932 46.0187 17.8687 46.0187 17.8266C46.0187 17.7636 46.1057 17.7215 46.2797 17.7005C46.6795 17.6445 46.8794 17.4448 46.8794 17.1016V10.8021C46.8794 10.655 46.7942 10.5534 46.624 10.4974C46.5499 10.4729 46.4703 10.4536 46.3852 10.4396C46.3001 10.4221 46.2316 10.4063 46.1798 10.3923C46.1316 10.3783 46.1002 10.366 46.0854 10.3555C46.0743 10.3415 46.0687 10.3152 46.0687 10.2767C46.0687 10.2347 46.0965 10.1996 46.152 10.1716L47.5679 9.53065C47.5975 9.51664 47.6271 9.50963 47.6567 9.50963C47.7159 9.50963 47.7455 9.55166 47.7455 9.63573V10.303C47.7455 10.3415 47.7659 10.3608 47.8066 10.3608C47.851 10.3608 47.9547 10.31 48.1175 10.2084C48.5876 9.92119 49.0762 9.77758 49.5834 9.77758C49.9387 9.77758 50.2644 9.91419 50.5606 10.1874C50.9492 10.5447 51.2084 11.042 51.3379 11.6795C51.3749 11.8616 51.3934 12.056 51.3934 12.2627C51.3934 12.4658 51.3583 12.6813 51.2879 12.9089C51.1473 13.3608 50.8919 13.7548 50.5217 14.0911ZM48.9337 10.324C48.4303 10.324 48.0343 10.4606 47.7455 10.7338V13.6865C47.7455 13.8616 47.777 13.9755 47.8399 14.028C48.0028 14.1611 48.2526 14.2644 48.5895 14.338C49.2558 14.4816 49.774 14.331 50.1441 13.8862C50.407 13.5674 50.5384 13.1821 50.5384 12.7303C50.5384 11.8511 50.3292 11.1926 49.9109 10.7548C49.6592 10.4886 49.3335 10.345 48.9337 10.324Z" fill="white"/>
<path d="M54.2482 14.6427C54.2186 14.6427 54.2038 14.6287 54.2038 14.6007V14.4746C54.2038 14.4466 54.2297 14.4326 54.2815 14.4326C54.4555 14.4326 54.648 14.4151 54.859 14.38C55.5364 14.2715 55.8751 14.0508 55.8751 13.718V8.17513C55.8381 7.7268 55.6215 7.48336 55.2254 7.44483C55.107 7.43082 54.9756 7.42382 54.8312 7.42382H54.5147C54.4851 7.42382 54.4703 7.40981 54.4703 7.38179V7.25044C54.4703 7.22242 54.4851 7.20841 54.5147 7.20841L54.759 7.20315L55.7141 7.1979L57.6907 7.14011C59.808 7.14011 60.8666 7.73205 60.8666 8.91594C60.8666 9.41681 60.5927 9.83363 60.0449 10.1664C59.9598 10.2189 59.8857 10.2574 59.8228 10.282C59.7636 10.3065 59.7303 10.3205 59.7229 10.324C60.2115 10.5832 60.5946 10.8739 60.8722 11.1961C61.1535 11.5184 61.2942 11.9037 61.2942 12.352C61.2942 13.3082 60.8167 13.9737 59.8617 14.3485C59.3694 14.5447 58.8345 14.6427 58.257 14.6427H54.2482ZM57.0577 10.5447C57.0096 10.5447 56.9855 10.5639 56.9855 10.6025V13.4816C56.9855 13.7303 57.1077 13.9299 57.352 14.0806C57.6 14.2312 57.8665 14.3065 58.1515 14.3065C58.6994 14.3065 59.1658 14.1226 59.5507 13.7548C59.9357 13.3835 60.1282 12.9282 60.1282 12.3888C60.1282 11.8459 59.9209 11.4028 59.5063 11.0595C59.0954 10.7163 58.5735 10.5447 57.9405 10.5447H57.0577ZM56.9744 10.1191C56.9744 10.1856 57.017 10.2189 57.1021 10.2189H58.468C58.8234 10.2189 59.1214 10.0946 59.362 9.84588C59.6063 9.5972 59.7284 9.31874 59.7284 9.01051C59.7284 8.4606 59.5637 8.06305 59.2343 7.81786C58.9048 7.56918 58.4662 7.44483 57.9183 7.44483C57.7518 7.45534 57.6352 7.4606 57.5685 7.4606C57.5056 7.4606 57.439 7.4606 57.3687 7.4606C57.2983 7.45709 57.228 7.4606 57.1577 7.4711C57.0873 7.48161 57.0392 7.50438 57.0133 7.5394C56.9874 7.57443 56.9744 7.63222 56.9744 7.71278V10.1191Z" fill="white"/>
<path d="M65.1868 10.8757C65.1424 10.8687 65.0776 10.8459 64.9925 10.8074C64.6853 10.6743 64.4447 10.6077 64.2707 10.6077C64.0967 10.6077 63.9135 10.711 63.721 10.9177C63.5322 11.1208 63.4378 11.3047 63.4378 11.4694V13.8441C63.4378 14.1068 63.5989 14.282 63.9209 14.3695C64.0616 14.4046 64.193 14.4308 64.3151 14.4483C64.4373 14.4623 64.515 14.4764 64.5483 14.4904C64.5853 14.5044 64.6038 14.5324 64.6038 14.5744C64.6038 14.613 64.5853 14.6357 64.5483 14.6427H61.7666C61.7296 14.6357 61.711 14.6112 61.711 14.5692C61.711 14.5061 61.798 14.4641 61.972 14.4431C62.3718 14.387 62.5717 14.1874 62.5717 13.8441V11.0648C62.5717 10.9177 62.4865 10.8161 62.3163 10.7601C62.2422 10.7356 62.1626 10.7163 62.0775 10.7023C61.9924 10.6848 61.9239 10.669 61.8721 10.655C61.8239 10.641 61.7925 10.6287 61.7777 10.6182C61.7666 10.6042 61.761 10.5779 61.761 10.5394C61.761 10.4974 61.7888 10.4623 61.8443 10.4343L63.2602 9.80385C63.3046 9.78284 63.3323 9.77233 63.3434 9.77233C63.4064 9.77233 63.4378 9.81436 63.4378 9.89842V10.7496C63.4378 10.7916 63.4489 10.8126 63.4711 10.8126C63.5008 10.8126 63.5766 10.7303 63.6988 10.5657C64.0504 10.0998 64.341 9.8669 64.5705 9.8669C64.7001 9.8669 64.8981 9.91594 65.1646 10.014C65.4348 10.1121 65.5699 10.1944 65.5699 10.2609C65.5699 10.3415 65.5274 10.4641 65.4422 10.6287C65.3571 10.7933 65.272 10.8757 65.1868 10.8757Z" fill="white"/>
<path d="M65.5093 14.6427C65.4723 14.6357 65.4538 14.6112 65.4538 14.5692C65.4538 14.5061 65.5408 14.4641 65.7147 14.4431C66.1145 14.387 66.3144 14.1874 66.3144 13.8441V11.0648C66.3144 10.9177 66.2293 10.8161 66.059 10.7601C65.985 10.7356 65.9054 10.7163 65.8202 10.7023C65.7351 10.6848 65.6666 10.669 65.6148 10.655C65.5667 10.641 65.5352 10.6287 65.5204 10.6182C65.5093 10.6042 65.5038 10.5779 65.5038 10.5394C65.5038 10.4974 65.5315 10.4623 65.587 10.4343L67.0029 9.80385C67.0473 9.78284 67.0751 9.77233 67.0862 9.77233C67.1491 9.77233 67.1806 9.81436 67.1806 9.89842V13.8441C67.1806 14.1874 67.3805 14.387 67.7802 14.4431C67.9542 14.4641 68.0412 14.5009 68.0412 14.5534C68.0412 14.606 68.0227 14.6357 67.9857 14.6427H65.5093ZM66.6642 8.29597C66.5124 8.29597 66.3773 8.25044 66.2589 8.15937C66.1441 8.0683 66.0868 7.94221 66.0868 7.78109C66.0868 7.61646 66.1423 7.48687 66.2533 7.39229C66.3644 7.29772 66.4958 7.25044 66.6475 7.25044C66.803 7.25044 66.9326 7.30648 67.0362 7.41856C67.1436 7.53065 67.1972 7.65149 67.1972 7.78109C67.1972 7.91068 67.1473 8.02977 67.0473 8.13835C66.9474 8.24343 66.8197 8.29597 66.6642 8.29597Z" fill="white"/>
<path d="M71.6784 9.99299C71.8413 10.0455 71.9412 10.0718 71.9783 10.0718C72.0153 10.0718 72.0375 10.0718 72.0449 10.0718C72.056 10.0683 72.0689 10.0455 72.0837 10.0035V7.29247C72.0837 7.14536 71.9986 7.04378 71.8283 6.98774C71.7543 6.96322 71.6747 6.94396 71.5896 6.92995C71.5044 6.91243 71.436 6.89667 71.3841 6.88266C71.336 6.86865 71.3046 6.85639 71.2898 6.84588C71.2787 6.83187 71.2731 6.8056 71.2731 6.76708C71.2731 6.72504 71.3009 6.69002 71.3564 6.662L72.7722 6.03152C72.8167 6.01051 72.8444 6 72.8555 6C72.9184 6 72.9499 6.04203 72.9499 6.12609V13.6077C72.9684 13.7618 73.0147 13.8722 73.0887 13.9387C73.1628 14.0053 73.2831 14.0385 73.4496 14.0385L73.7717 14.0175C73.7939 14.0175 73.805 14.0385 73.805 14.0806C73.805 14.1191 73.7772 14.1506 73.7217 14.1751L72.2448 14.7531C72.2003 14.7741 72.1615 14.7846 72.1282 14.7846C72.0986 14.7846 72.0837 14.7408 72.0837 14.6532V14.1751C72.0837 14.1401 72.0745 14.1226 72.056 14.1226C72.0301 14.1226 71.8765 14.2014 71.5951 14.359C70.7327 14.8424 70.0053 14.9142 69.4131 14.5744C68.9393 14.3012 68.6191 13.8687 68.4525 13.2767C68.3748 13 68.3359 12.7075 68.3359 12.3993C68.3359 12.0876 68.4025 11.7793 68.5358 11.4746C68.6727 11.1664 68.8597 10.8967 69.0966 10.6655C69.6185 10.1611 70.2478 9.90893 70.9844 9.90893C71.2842 9.90893 71.5156 9.93695 71.6784 9.99299ZM69.1743 12.2469C69.1743 12.7758 69.3298 13.2399 69.6407 13.6392C69.9516 14.035 70.3847 14.2329 70.94 14.2329C71.1843 14.2329 71.436 14.1769 71.6951 14.0648C71.9542 13.9492 72.0837 13.8616 72.0837 13.8021V11.0911C72.0837 11.0245 72.0356 10.9457 71.9394 10.8546C71.6433 10.4694 71.249 10.2767 70.7567 10.2767C70.2681 10.2767 69.8813 10.4729 69.5963 10.8651C69.315 11.2539 69.1743 11.7145 69.1743 12.2469Z" fill="white"/>
<path d="M78.0086 10.2767C78.0086 10.2767 78.5046 10.2557 79.4966 10.2137C79.5817 10.2137 79.6372 10.2224 79.6632 10.2399C79.6891 10.2574 79.7168 10.3187 79.7464 10.4238C79.7761 10.5254 79.7909 10.6217 79.7909 10.7128C79.7909 10.8039 79.7816 10.8564 79.7631 10.8704C79.7446 10.8844 79.7076 10.8914 79.6521 10.8914H78.4194C78.4416 10.9299 78.4657 10.9702 78.4916 11.0123C78.5175 11.0543 78.5508 11.1243 78.5916 11.2224C78.6323 11.3205 78.6526 11.4729 78.6526 11.6795C78.6526 11.8827 78.599 12.0963 78.4916 12.3205C78.388 12.5412 78.2344 12.7373 78.0308 12.9089C77.5792 13.2942 76.9943 13.4869 76.2762 13.4869C76.0874 13.4869 75.8801 13.4536 75.6544 13.387C75.5988 13.4431 75.5248 13.4956 75.4323 13.5447C75.3397 13.5902 75.249 13.6375 75.1602 13.6865C74.9381 13.8056 74.8271 13.9247 74.8271 14.0438C74.8271 14.3415 75.349 14.4939 76.3928 14.5009C77.4367 14.5079 78.1215 14.5412 78.4472 14.6007C78.7766 14.6567 79.032 14.7706 79.2134 14.9422C79.4984 15.2119 79.6409 15.5201 79.6409 15.8669C79.6409 16.1646 79.5058 16.4711 79.2356 16.7863C78.7655 17.3433 78.0474 17.7145 77.0813 17.9002C76.7371 17.9667 76.3725 18 75.9875 18C75.2879 18 74.7567 17.8792 74.394 17.6375C74.0312 17.3993 73.8498 17.1103 73.8498 16.7706C73.8498 16.5849 73.8961 16.4308 73.9886 16.3082C74.0812 16.1891 74.1978 16.0753 74.3384 15.9667C74.4828 15.8616 74.6401 15.7496 74.8104 15.6305C74.9807 15.5149 75.1435 15.366 75.299 15.1839C74.9437 15.1559 74.6383 15.049 74.3829 14.8634C74.1312 14.6778 74.0053 14.4956 74.0053 14.317C74.0053 14.1384 74.0553 14.007 74.1552 13.9229C74.2552 13.8354 74.3773 13.7618 74.5217 13.7023C74.666 13.6392 74.8178 13.5814 74.977 13.5289C75.1361 13.4764 75.2749 13.4081 75.3934 13.324C74.9788 13.1699 74.6586 12.958 74.4328 12.6883C74.207 12.4151 74.0941 12.1173 74.0941 11.7951C74.0941 11.1961 74.3236 10.7075 74.7826 10.3292C75.2453 9.95096 75.8024 9.76182 76.4539 9.76182C77.1054 9.76182 77.6236 9.93345 78.0086 10.2767ZM74.9881 15.7566C74.9029 15.8371 74.8326 15.9229 74.7771 16.014C74.7216 16.1051 74.6938 16.2189 74.6938 16.3555C74.6938 16.4956 74.7456 16.641 74.8493 16.7916C74.9566 16.9457 75.101 17.0841 75.2823 17.2067C75.6821 17.4869 76.1633 17.627 76.726 17.627C77.2886 17.627 77.7976 17.4711 78.2529 17.1594C78.7119 16.8511 78.9414 16.5114 78.9414 16.1401C78.9414 15.7723 78.7526 15.5254 78.375 15.3993C78.1973 15.3433 77.7402 15.3082 77.0036 15.2942C76.267 15.2802 75.7895 15.2609 75.5711 15.2364C75.4748 15.3415 75.3749 15.4343 75.2712 15.5149C75.1713 15.5954 75.0769 15.676 74.9881 15.7566ZM77.742 11.6743C77.742 11.1804 77.6106 10.7793 77.3478 10.4711C77.0887 10.1594 76.7445 10.0035 76.3151 10.0035C75.7599 10.0035 75.3675 10.2504 75.138 10.7443C75.0492 10.9335 75.0047 11.1506 75.0047 11.3958C75.0047 11.8967 75.1139 12.3135 75.3323 12.6462C75.5988 13.0455 75.9486 13.2452 76.3817 13.2452C76.8148 13.2452 77.1498 13.1068 77.3867 12.8301C77.6236 12.5534 77.742 12.1681 77.742 11.6743Z" fill="white"/>
<path d="M80.663 11.8739C80.6001 11.8739 80.5686 12.0018 80.5686 12.2574C80.5686 12.8004 80.7389 13.2557 81.0795 13.6235C81.42 13.9912 81.842 14.1751 82.3454 14.1751C82.8525 14.1751 83.3393 13.9685 83.8057 13.5552C83.8131 13.5482 83.8223 13.5447 83.8334 13.5447H83.8612C83.8834 13.5447 83.9038 13.5622 83.9223 13.5972C83.9445 13.6287 83.9648 13.6497 83.9833 13.6602C83.554 14.1541 83.0487 14.4956 82.4675 14.6848C82.2677 14.7513 82.0419 14.7846 81.7902 14.7846C81.5385 14.7846 81.283 14.7198 81.0239 14.5902C80.7648 14.4571 80.5427 14.2837 80.3577 14.0701C79.9653 13.6252 79.7691 13.0718 79.7691 12.4098C79.7691 11.7443 79.9819 11.1384 80.4076 10.5919C80.837 10.0455 81.4256 9.77233 82.1733 9.77233C82.71 9.77233 83.1486 10 83.4892 10.4553C83.8297 10.9072 84 11.3047 84 11.648C84 11.7986 83.9611 11.8739 83.8834 11.8739H80.663ZM80.7241 11.3695C80.7241 11.4361 80.7574 11.4694 80.8241 11.4694H82.9173C83.0135 11.4694 83.0617 11.4151 83.0617 11.3065C83.0617 11.0543 82.9413 10.7968 82.7007 10.5342C82.4638 10.268 82.2029 10.1349 81.9179 10.1349C81.6402 10.1349 81.3867 10.2539 81.1572 10.4921C80.9314 10.7303 80.787 11.0018 80.7241 11.3065V11.3695Z" fill="white"/>
</svg>
