<svg width="130" height="32" viewBox="0 0 130 32" fill="none" xmlns="http://www.w3.org/2000/svg">
<path d="M54.208 11.241L46.5987 22.136V5.62048H43.0535V26.373H47.6364L50.9222 21.6172L54.208 26.373H58.1856L52.911 18.8502L58.1856 11.241H54.208ZM63.806 5.62048H60.2608V26.373H63.806V5.62048ZM92.6002 23.1737L88.1038 11.241H84.2127L89.9197 26.373H91.3896L89.3144 31.9935H93.2919L101.161 11.241H97.183L92.6002 23.1737ZM108.77 7.69573H105.225V11.241H102.89L101.593 14.6132H105.225V26.373H108.77V14.6132H112.402V11.241H108.77V7.69573ZM122.086 10.9815C120.097 10.9815 118.541 11.8462 117.676 13.2297V11.241H114.131V26.373H117.676V18.3314C117.676 15.9103 118.887 14.008 121.308 14.008C124.161 14.008 125.372 15.8238 125.372 18.5908V26.373H129.004V18.5908C129.004 14.008 126.41 10.9815 122.086 10.9815ZM79.1975 11.241V13.1433C77.7275 11.5868 75.9117 10.9815 73.6635 10.9815C71.5018 10.9815 69.6859 11.7598 68.216 13.2297C66.746 14.7862 66.0542 16.602 66.0542 18.8502C66.0542 21.0984 66.746 23.0007 68.216 24.4707C69.6859 25.9407 71.5018 26.7189 73.6635 26.7189C75.8252 26.7189 77.7275 26.1136 79.1975 24.5572V26.4595H82.7427V11.241H79.1975ZM74.4417 23.4331C73.4906 23.4331 72.6259 23.1737 71.8477 22.6548C71.0694 22.136 70.4642 21.4443 70.1183 20.5796C69.7724 19.7149 69.6859 18.7637 69.8589 17.8991C70.0318 17.0344 70.4641 16.1697 71.1559 15.5644C71.8476 14.8726 72.6259 14.4403 73.577 14.2674C74.5282 14.0944 75.3929 14.1809 76.2576 14.5268C77.1223 14.8726 77.814 15.4779 78.3328 16.2561C78.8516 17.0344 79.111 17.8991 79.111 18.8502C79.111 20.0608 78.5922 21.2713 77.7275 22.136C76.8628 23.0007 75.6523 23.4331 74.4417 23.4331ZM27.4891 3.71816C24.7221 1.3835 21.3498 0.0864689 17.7181 0L9.5036 21.5307L27.4891 3.71816ZM29.5644 5.70695L19.1881 15.9967L29.5644 26.2001C31.9855 23.3466 33.2825 19.7149 33.2825 15.9967C33.2825 12.1921 31.9855 8.64689 29.5644 5.70695ZM13.6541 2.42113L1.02965 14.9591C0.770241 19.0232 2.06727 22.9143 4.66134 26.1136L13.6541 2.42113ZM17.1993 17.9855L6.82306 28.1889C9.763 30.61 13.3947 31.907 17.1993 31.907C21.004 31.907 24.6357 30.61 27.5756 28.1889L17.1993 17.9855Z" fill="white"/>
</svg>
