<svg width="92" height="40" viewBox="0 0 92 40" fill="none" xmlns="http://www.w3.org/2000/svg">
<path d="M20.4084 40C31.4536 40 40.4242 31.0558 40.4242 20.0044C40.4242 8.95247 31.4536 0 20.4084 0C9.34609 0 0.392578 8.95247 0.392578 20.0044C0.392578 31.0558 9.34609 40 20.4084 40Z" fill="white"/>
<path d="M19.6035 11.2256V28.7748H25.1826V27.1968H21.2115V11.2256H19.6035Z" fill="black"/>
<path d="M14.0164 16.0135C15.3437 16.0135 16.4136 14.9343 16.4136 13.6163C16.4136 12.2973 15.3437 11.2139 14.0164 11.2139C12.6891 11.2139 11.6191 12.2973 11.6191 13.6163C11.6191 14.9353 12.6891 16.0135 14.0164 16.0135Z" fill="black"/>
<path d="M21.2101 3.26452C21.0009 3.25416 20.6032 3.24121 20.4131 3.24121C11.1743 3.24121 3.65527 10.7628 3.65527 19.996C3.65527 24.4807 5.39792 28.6843 8.55435 31.8454C11.7237 34.9993 15.9294 36.7419 20.4131 36.7419C24.8798 36.7419 29.0844 34.9993 32.2481 31.8454C35.4123 28.6843 37.1632 24.4807 37.1632 19.996V19.2507H36.4853H25.1972V20.793H35.5671C35.5671 20.8266 35.5671 20.9903 35.5599 21.0327C35.0327 28.9262 28.4402 35.1779 20.4131 35.1779C16.3499 35.1779 12.5399 33.5979 9.67244 30.7284C6.79566 27.8707 5.21045 24.0639 5.21045 19.9954C5.21045 15.9503 6.79566 12.1238 9.67244 9.25734C12.5399 6.3935 16.3499 4.81347 20.4131 4.81347C20.5882 4.81347 21.0139 4.81347 21.2101 4.82383V3.26452Z" fill="black"/>
<path d="M55.4775 6.73329H49.4629V32.7709H67.9365V27.7025H55.4775V6.73329ZM81.1676 22.8485H86.0662V27.4011C85.163 27.745 83.4017 28.0878 81.7259 28.0878C76.3125 28.0878 74.5093 25.3384 74.5093 19.7542C74.5093 14.4289 76.2266 11.289 81.6399 11.289C84.6482 11.289 86.3665 12.2347 87.7824 14.0394L91.522 10.6013C89.2444 7.33869 85.2479 6.35059 81.5115 6.35059C73.0888 6.35059 68.6646 10.9472 68.6646 19.7107C68.6646 28.4317 72.66 33.1573 81.469 33.1573C85.5069 33.1573 89.4598 32.1267 91.6069 30.6233V17.9924H81.1676V22.8485Z" fill="white"/>
</svg>
