<svg width="24" height="24" viewBox="0 0 24 24" fill="none" xmlns="http://www.w3.org/2000/svg">
<path d="M2.18881 9.00496C2.21869 8.92609 2.27073 8.85754 2.33867 8.80756C2.40661 8.75758 2.48754 8.72831 2.57173 8.72326L17.2187 7.8442C17.2999 7.83923 17.3808 7.85698 17.4525 7.89548C17.5242 7.93397 17.5837 7.99168 17.6243 8.06213C17.665 8.13257 17.6852 8.21296 17.6827 8.29426C17.6802 8.37556 17.6551 8.45456 17.6102 8.52238L9.52547 20.7675C9.47908 20.8379 9.41336 20.8933 9.33619 20.9272C9.25903 20.9611 9.17372 20.972 9.09052 20.9586C9.00731 20.9451 8.92976 20.908 8.86718 20.8515C8.8046 20.795 8.75967 20.7217 8.73777 20.6403L7.0028 14.195L2.28845 9.46977C2.22881 9.41014 2.18767 9.33454 2.16999 9.25208C2.15231 9.16961 2.15885 9.08379 2.18881 9.00496ZM7.90425 14.1797L9.33066 19.4746L16.3978 8.77076L3.59367 9.53961L7.46677 13.4219L12.4799 10.5276C12.5803 10.4696 12.6998 10.4539 12.8118 10.4839C12.9239 10.514 13.0195 10.5873 13.0775 10.6878C13.1355 10.7882 13.1512 10.9077 13.1212 11.0197C13.0911 11.1318 13.0178 11.2274 12.9173 11.2854L7.90425 14.1797Z" fill="black"/>
</svg>
