<svg width="40" height="118" viewBox="0 0 40 118" fill="none" xmlns="http://www.w3.org/2000/svg">
<mask id="mask0_937_738" style="mask-type:alpha" maskUnits="userSpaceOnUse" x="8" y="86" width="24" height="24">
<circle cx="20" cy="98" r="12" transform="rotate(-90 20 98)" fill="white"/>
</mask>
<g mask="url(#mask0_937_738)">
<path d="M8.20811 86.1353C7.42961 86.4548 6.78441 86.7946 6.25999 87.156C5.22529 87.8691 4.65609 88.6696 4.46706 89.5653C4.27864 90.4581 4.47159 91.4288 4.92643 92.4763C5.38135 93.5241 6.10248 94.6583 6.98341 95.8827C7.72165 96.9087 8.57489 98.0017 9.48148 99.163C9.65693 99.3878 9.83439 99.6151 10.0134 99.845C11.118 101.264 12.2829 102.782 13.4072 104.406C14.3554 105.775 15.2741 107.22 16.1028 108.743C16.148 110.351 16.2944 111.979 16.5853 113.606C15.402 110.331 13.6602 107.371 11.8123 104.701C10.6847 103.072 9.5169 101.551 8.41192 100.131C8.23252 99.901 8.0548 99.6734 7.8792 99.4484C6.97257 98.287 6.12222 97.1977 5.38648 96.1751C4.50804 94.9543 3.79689 93.8338 3.3506 92.806C2.90423 91.7779 2.72702 90.852 2.90347 90.0159C3.07931 89.1827 3.61002 88.422 4.6142 87.73C5.45902 87.1478 6.63562 86.6167 8.20811 86.1353ZM6.37348 87.3207C7.23196 86.7291 8.43302 86.1902 10.044 85.7027C9.24772 86.0269 8.58955 86.3721 8.05627 86.7396C7.02156 87.4526 6.45237 88.2532 6.26334 89.1489C6.07492 90.0417 6.26787 91.0124 6.7227 92.0599C7.17763 93.1076 7.89875 94.2419 8.77969 95.4662C9.51795 96.4923 10.3712 97.5853 11.2778 98.7467C11.4532 98.9714 11.6307 99.1987 11.8097 99.4286C12.9143 100.847 14.0792 102.365 15.2034 103.989C15.5206 104.447 15.8344 104.914 16.1427 105.389C16.0961 106.351 16.0763 107.326 16.0931 108.31C15.3094 106.903 14.4525 105.564 13.5716 104.292C12.444 102.663 11.2762 101.141 10.1712 99.7221C9.99179 99.4917 9.81407 99.2641 9.63847 99.0391C8.73184 97.8777 7.8815 96.7884 7.14575 95.7659C6.26732 94.545 5.55617 93.4246 5.10988 92.3967C4.6635 91.3686 4.4863 90.4427 4.66275 89.6066C4.83859 88.7734 5.3693 88.0127 6.37348 87.3207ZM8.16976 86.9042C9.01043 86.3249 10.1796 85.7962 11.7405 85.3167C12.6132 85.1919 13.3664 85.1593 14.0146 85.2111C15.2302 85.3084 16.0702 85.7018 16.6391 86.3355C17.2099 86.9713 17.5194 87.8618 17.6469 88.9753C17.7743 90.0886 17.7187 91.4145 17.5684 92.911C17.4425 94.1644 17.2507 95.533 17.0462 96.9921C17.0066 97.2747 16.9665 97.5607 16.9264 97.85C16.679 99.6314 16.4285 101.533 16.2664 103.508C16.2246 104.017 16.1887 104.531 16.1602 105.05C15.8992 104.652 15.6346 104.261 15.3679 103.875C14.2403 102.246 13.0725 100.725 11.9675 99.3057C11.7881 99.0753 11.6103 98.8476 11.4347 98.6226C10.5281 97.4613 9.67777 96.372 8.94203 95.3494C8.0636 94.1286 7.35245 93.0081 6.90616 91.9803C6.45978 90.9522 6.28258 90.0263 6.45903 89.1902C6.63487 88.357 7.16558 87.5963 8.16976 86.9042ZM14.0305 85.0118C13.6913 84.9846 13.3252 84.9801 12.9307 84.9989C14.0496 84.8001 14.9888 84.7391 15.7738 84.8019C16.9895 84.8991 17.8295 85.2925 18.3984 85.9262C18.9692 86.562 19.2787 87.4525 19.4062 88.566C19.5336 89.6793 19.4779 91.0052 19.3276 92.5017C19.2017 93.7552 19.01 95.1237 18.8055 96.5828C18.7659 96.8654 18.7258 97.1515 18.6857 97.4407C18.4383 99.2222 18.1877 101.124 18.0257 103.098C17.8994 104.637 17.8268 106.22 17.8511 107.826C17.3724 106.97 16.8669 106.14 16.3456 105.334C16.3758 104.725 16.4167 104.121 16.4657 103.524C16.6273 101.555 16.8772 99.6583 17.1245 97.8775C17.1646 97.5889 17.2046 97.3033 17.2441 97.0209C17.4486 95.5619 17.641 94.1887 17.7673 92.931C17.9181 91.4302 17.9755 90.0874 17.8456 88.9526C17.7157 87.8179 17.3975 86.8809 16.7879 86.2019C16.1764 85.5207 15.2831 85.112 14.0305 85.0118ZM16.3297 105.679C16.862 106.512 17.3761 107.37 17.86 108.255C17.9025 109.888 18.0489 111.543 18.3445 113.197C17.7758 111.622 17.078 110.121 16.3014 108.69C16.2742 107.677 16.2872 106.671 16.3297 105.679ZM15.7898 84.6025C15.4494 84.5753 15.0821 84.5708 14.686 84.5898C15.823 84.3852 16.7755 84.3219 17.5701 84.3854C18.7858 84.4827 19.6257 84.8761 20.1946 85.5098C20.7655 86.1456 21.075 87.0361 21.2024 88.1496C21.3299 89.2629 21.2742 90.5888 21.1239 92.0853C20.998 93.3387 20.8063 94.7072 20.6018 96.1663C20.5622 96.4489 20.5221 96.735 20.4819 97.0243C20.2345 98.8057 19.984 100.707 19.822 102.682C19.5564 105.918 19.528 109.352 20.1408 112.78C19.5625 111.18 18.8509 109.654 18.0587 108.201C18.0158 106.474 18.0892 104.77 18.225 103.115C18.3866 101.146 18.6364 99.249 18.8838 97.4682C18.9238 97.1796 18.9638 96.8941 19.0034 96.6117C19.2079 95.1526 19.4003 93.7794 19.5266 92.5217C19.6774 91.0209 19.7348 89.6781 19.6049 88.5433C19.475 87.4086 19.1568 86.4716 18.5472 85.7926C17.9356 85.1114 17.0424 84.7027 15.7898 84.6025ZM19.5437 117.672C20.122 119.272 20.8336 120.798 21.6259 122.251C21.6503 123.237 21.6369 124.216 21.5956 125.182C21.0489 124.327 20.5214 123.445 20.0261 122.535C19.981 120.927 19.8345 119.299 19.5437 117.672ZM21.6588 127.354C21.7007 126.844 21.7366 126.33 21.7651 125.812C22.026 126.209 22.2906 126.6 22.5574 126.986C23.685 128.615 24.8528 130.136 25.9578 131.556C26.1372 131.786 26.3149 132.014 26.4905 132.239C27.3971 133.4 28.2475 134.489 28.9832 135.512C29.8616 136.733 30.5728 137.853 31.0191 138.881C31.4655 139.909 31.6427 140.835 31.4662 141.671C31.2904 142.504 30.7597 143.265 29.7555 143.957C28.9148 144.536 27.7456 145.065 26.1847 145.545C25.312 145.669 24.5588 145.702 23.9107 145.65C22.695 145.553 21.8551 145.159 21.2862 144.526C20.7153 143.89 20.4058 143 20.2784 141.886C20.1509 140.773 20.2066 139.447 20.3569 137.95C20.4828 136.697 20.6746 135.328 20.879 133.869C20.9186 133.587 20.9587 133.301 20.9989 133.011C21.2463 131.23 21.4968 129.328 21.6588 127.354ZM21.5797 125.527C21.5494 126.136 21.5085 126.74 21.4595 127.337C21.2979 129.306 21.0481 131.203 20.8008 132.984C20.7607 133.272 20.7207 133.558 20.6811 133.84C20.4766 135.299 20.2842 136.673 20.1579 137.93C20.0072 139.431 19.9498 140.774 20.0797 141.909C20.2095 143.043 20.5278 143.98 21.1373 144.659C21.7489 145.341 22.6421 145.749 23.8947 145.85C24.2351 145.877 24.6025 145.881 24.9985 145.862C23.8616 146.067 22.909 146.13 22.1144 146.067C20.8987 145.969 20.0588 145.576 19.4899 144.942C18.919 144.306 18.6095 143.416 18.4821 142.302C18.3547 141.189 18.4103 139.863 18.5606 138.367C18.6865 137.113 18.8783 135.745 19.0827 134.286C19.1223 134.003 19.1624 133.717 19.2026 133.428C19.45 131.646 19.7005 129.745 19.8626 127.77C19.9908 126.208 20.0637 124.599 20.0359 122.967C20.5259 123.847 21.0445 124.7 21.5797 125.527ZM19.8275 122.588C19.8746 124.342 19.8011 126.074 19.6632 127.754C19.5017 129.722 19.2518 131.619 19.0045 133.4C18.9644 133.689 18.9244 133.974 18.8848 134.257C18.6804 135.716 18.4879 137.089 18.3616 138.347C18.2109 139.847 18.1535 141.19 18.2834 142.325C18.4133 143.46 18.7315 144.397 19.3411 145.076C19.9526 145.757 20.8458 146.166 22.0985 146.266C22.4377 146.293 22.8037 146.298 23.1982 146.279C22.0794 146.478 21.1401 146.539 20.3551 146.476C19.1395 146.379 18.2995 145.985 17.7306 145.352C17.1598 144.716 16.8503 143.825 16.7228 142.712C16.5954 141.598 16.651 140.273 16.8013 138.776C16.9272 137.523 17.119 136.154 17.3235 134.695C17.3631 134.412 17.4031 134.126 17.4433 133.837C17.6907 132.056 17.9412 130.154 18.1033 128.179C18.3689 124.944 18.3973 121.509 17.7844 118.081C18.3532 119.655 19.051 121.157 19.8275 122.588ZM21.34 117.255C22.5233 120.531 24.2651 123.491 26.1129 126.16C27.2405 127.789 28.4083 129.311 29.5133 130.73C29.6927 130.96 29.8705 131.188 30.0461 131.413C30.9527 132.574 31.803 133.664 32.5388 134.686C33.4172 135.907 34.1283 137.027 34.5746 138.055C35.021 139.083 35.1982 140.009 35.0218 140.845C34.8459 141.679 34.3152 142.439 33.311 143.131C32.4526 143.723 31.2515 144.262 29.6406 144.749C30.4368 144.425 31.095 144.08 31.6282 143.712C32.663 142.999 33.2322 142.199 33.4212 141.303C33.6096 140.41 33.4167 139.44 32.9618 138.392C32.5069 137.344 31.7858 136.21 30.9048 134.986C30.1666 133.96 29.3133 132.867 28.4067 131.705C28.2313 131.481 28.0538 131.253 27.8749 131.023C26.7702 129.605 25.6053 128.087 24.4811 126.463C23.5478 125.115 22.643 123.694 21.8246 122.197C21.782 120.564 21.6356 118.909 21.34 117.255ZM21.7826 125.472C21.8279 124.535 21.8479 123.585 21.8334 122.626C22.6067 124.009 23.45 125.325 24.3166 126.577C25.4443 128.206 26.6121 129.727 27.7171 131.146C27.8965 131.377 28.0742 131.604 28.2498 131.829C29.1564 132.991 30.0067 134.08 30.7425 135.103C31.6209 136.323 32.3321 137.444 32.7784 138.472C33.2247 139.5 33.4019 140.426 33.2255 141.262C33.0496 142.095 32.5189 142.856 31.5148 143.548C30.6699 144.13 29.4933 144.661 27.9208 145.142C28.6993 144.823 29.3445 144.483 29.869 144.122C30.9037 143.409 31.4729 142.608 31.6619 141.712C31.8503 140.82 31.6574 139.849 31.2025 138.801C30.7476 137.754 30.0265 136.619 29.1456 135.395C28.4073 134.369 27.5541 133.276 26.6475 132.115C26.472 131.89 26.2946 131.663 26.1156 131.433C25.011 130.014 23.8461 128.496 22.7218 126.872C22.4047 126.414 22.0908 125.947 21.7826 125.472Z" stroke="white" stroke-width="0.2"/>
<path d="M14.4073 85.9356C13.6288 86.255 12.9836 86.5949 12.4592 86.9563C11.4245 87.6693 10.8553 88.4699 10.6663 89.3656C10.4779 90.2584 10.6708 91.2291 11.1256 92.2766C11.5806 93.3244 12.3017 94.4586 13.1826 95.683C13.9209 96.709 14.7741 97.802 15.6807 98.9633C15.8562 99.1881 16.0336 99.4154 16.2126 99.6453C17.3172 101.064 18.4821 102.582 19.6064 104.206C20.5546 105.576 21.4734 107.02 22.302 108.543C22.3472 110.151 22.4936 111.779 22.7845 113.406C21.6012 110.131 19.8594 107.171 18.0115 104.501C16.8839 102.872 15.7161 101.351 14.6111 99.9317C14.4317 99.7013 14.254 99.4737 14.0784 99.2487C13.1718 98.0873 12.3214 96.998 11.5857 95.9754C10.7073 94.7546 9.99611 93.6341 9.54982 92.6063C9.10344 91.5782 8.92624 90.6523 9.10269 89.8162C9.27853 88.983 9.80924 88.2223 10.8134 87.5302C11.6582 86.948 12.8348 86.417 14.4073 85.9356ZM12.5727 87.121C13.4312 86.5293 14.6322 85.9905 16.2432 85.503C15.4469 85.8271 14.7888 86.1723 14.2555 86.5398C13.2208 87.2529 12.6516 88.0535 12.4626 88.9492C12.2741 89.842 12.4671 90.8126 12.9219 91.8602C13.3768 92.9079 14.098 94.0422 14.9789 95.2665C15.7172 96.2926 16.5704 97.3856 17.477 98.547C17.6525 98.7717 17.8299 98.999 18.0089 99.2289C19.1135 100.647 20.2784 102.165 21.4027 103.79C21.7198 104.248 22.0336 104.714 22.3419 105.189C22.2954 106.151 22.2755 107.127 22.2923 108.111C21.5086 106.703 20.6518 105.365 19.7708 104.092C18.6432 102.463 17.4754 100.942 16.3704 99.5224C16.191 99.292 16.0133 99.0644 15.8377 98.8394C14.9311 97.678 14.0807 96.5887 13.345 95.5661C12.4665 94.3453 11.7554 93.2248 11.3091 92.197C10.8627 91.1689 10.6855 90.243 10.862 89.4069C11.0378 88.5737 11.5685 87.813 12.5727 87.121ZM14.369 86.7045C15.2096 86.1252 16.3789 85.5965 17.9398 85.117C18.8124 84.9922 19.5657 84.9596 20.2138 85.0114C21.4294 85.1087 22.2694 85.5021 22.8383 86.1358C23.4092 86.7716 23.7186 87.6621 23.8461 88.7756C23.9735 89.8889 23.9179 91.2148 23.7676 92.7113C23.6417 93.9647 23.4499 95.3333 23.2454 96.7924C23.2058 97.075 23.1658 97.361 23.1256 97.6503C22.8782 99.4317 22.6277 101.333 22.4656 103.308C22.4238 103.817 22.3879 104.332 22.3594 104.85C22.0984 104.453 21.8339 104.061 21.5671 103.676C20.4395 102.047 19.2717 100.525 18.1667 99.106C17.9873 98.8756 17.8095 98.6479 17.6339 98.4229C16.7273 97.2615 15.877 96.1723 15.1412 95.1497C14.2628 93.9288 13.5517 92.8084 13.1054 91.7805C12.659 90.7525 12.4818 89.8266 12.6582 88.9905C12.8341 88.1573 13.3648 87.3966 14.369 86.7045ZM20.2297 84.8121C19.8905 84.7849 19.5245 84.7804 19.1299 84.7992C20.2488 84.6004 21.188 84.5394 21.9731 84.6021C23.1887 84.6994 24.0287 85.0928 24.5976 85.7265C25.1684 86.3623 25.4779 87.2528 25.6054 88.3663C25.7328 89.4796 25.6772 90.8055 25.5268 92.302C25.4009 93.5554 25.2092 94.924 25.0047 96.3831C24.9651 96.6657 24.925 96.9517 24.8849 97.241C24.6375 99.0224 24.387 100.924 24.2249 102.899C24.0986 104.437 24.026 106.02 24.0503 107.626C23.5716 106.77 23.0661 105.94 22.5448 105.134C22.575 104.525 22.6159 103.922 22.6649 103.324C22.8265 101.356 23.0764 99.4586 23.3237 97.6778C23.3638 97.3892 23.4038 97.1036 23.4434 96.8212C23.6478 95.3622 23.8402 93.989 23.9666 92.7313C24.1173 91.2305 24.1747 89.8877 24.0448 88.7528C23.9149 87.6182 23.5967 86.6811 22.9871 86.0021C22.3756 85.321 21.4823 84.9122 20.2297 84.8121ZM22.5289 105.479C23.0612 106.312 23.5753 107.17 24.0592 108.055C24.1018 109.688 24.2482 111.343 24.5438 112.997C23.975 111.423 23.2772 109.921 22.5006 108.49C22.4734 107.477 22.4865 106.472 22.5289 105.479ZM21.989 84.4028C21.6486 84.3756 21.2813 84.3711 20.8852 84.3901C22.0222 84.1855 22.9748 84.1222 23.7693 84.1857C24.985 84.2829 25.825 84.6764 26.3939 85.31C26.9647 85.9459 27.2742 86.8363 27.4017 87.9499C27.5291 89.0632 27.4734 90.3891 27.3231 91.8856C27.1972 93.139 27.0055 94.5075 26.801 95.9665C26.7614 96.2492 26.7213 96.5353 26.6812 96.8245C26.4338 98.606 26.1832 100.508 26.0212 102.482C25.7556 105.718 25.7272 109.152 26.34 112.58C25.7618 110.98 25.0501 109.455 24.2579 108.002C24.215 106.274 24.2884 104.57 24.4242 102.915C24.5858 100.946 24.8357 99.0493 25.083 97.2685C25.1231 96.9799 25.1631 96.6944 25.2026 96.412C25.4071 94.9529 25.5995 93.5797 25.7258 92.322C25.8766 90.8212 25.934 89.4784 25.8041 88.3435C25.6742 87.2089 25.356 86.2718 24.7464 85.5929C24.1348 84.9117 23.2416 84.503 21.989 84.4028ZM25.7429 117.472C26.3212 119.073 27.0328 120.598 27.8251 122.051C27.8495 123.037 27.8361 124.016 27.7948 124.982C27.2481 124.128 26.7206 123.245 26.2254 122.335C26.1802 120.727 26.0338 119.099 25.7429 117.472ZM27.8581 127.154C27.8999 126.645 27.9358 126.13 27.9643 125.612C28.2253 126.009 28.4898 126.401 28.7566 126.786C29.8842 128.415 31.052 129.937 32.157 131.356C32.3364 131.586 32.5141 131.814 32.6897 132.039C33.5963 133.2 34.4467 134.29 35.1824 135.312C36.0609 136.533 36.772 137.653 37.2183 138.681C37.6647 139.709 37.8419 140.635 37.6654 141.471C37.4896 142.305 36.9589 143.065 35.9547 143.757C35.114 144.337 33.9448 144.865 32.3839 145.345C31.5113 145.47 30.758 145.502 30.1099 145.45C28.8942 145.353 28.0543 144.96 27.4854 144.326C26.9145 143.69 26.605 142.8 26.4776 141.686C26.3501 140.573 26.4058 139.247 26.5561 137.751C26.682 136.497 26.8738 135.129 27.0782 133.669C27.1178 133.387 27.1579 133.101 27.1981 132.812C27.4455 131.03 27.696 129.128 27.8581 127.154ZM27.7789 125.327C27.7487 125.936 27.7078 126.54 27.6587 127.138C27.4972 129.106 27.2473 131.003 27 132.784C26.9599 133.073 26.9199 133.358 26.8803 133.641C26.6759 135.1 26.4834 136.473 26.3571 137.731C26.2064 139.231 26.149 140.574 26.2789 141.709C26.4088 142.844 26.727 143.781 27.3366 144.46C27.9481 145.141 28.8413 145.55 30.094 145.65C30.4343 145.677 30.8017 145.682 31.1977 145.662C30.0608 145.867 29.1082 145.93 28.3136 145.867C27.098 145.77 26.258 145.376 25.6891 144.743C25.1182 144.107 24.8088 143.216 24.6813 142.103C24.5539 140.989 24.6095 139.664 24.7598 138.167C24.8857 136.914 25.0775 135.545 25.282 134.086C25.3216 133.803 25.3616 133.517 25.4018 133.228C25.6492 131.447 25.8997 129.545 26.0618 127.57C26.19 126.008 26.263 124.399 26.2351 122.768C26.7251 123.647 27.2437 124.501 27.7789 125.327ZM26.0268 122.388C26.0739 124.143 26.0003 125.874 25.8625 127.554C25.7009 129.523 25.451 131.42 25.2037 133.201C25.1636 133.489 25.1236 133.775 25.084 134.057C24.8796 135.516 24.6872 136.889 24.5608 138.147C24.4101 139.648 24.3527 140.991 24.4826 142.125C24.6125 143.26 24.9307 144.197 25.5403 144.876C26.1518 145.557 27.0451 145.966 28.2977 146.066C28.6369 146.093 29.0029 146.098 29.3975 146.079C28.2786 146.278 27.3393 146.339 26.5543 146.276C25.3387 146.179 24.4987 145.785 23.9298 145.152C23.359 144.516 23.0495 143.626 22.922 142.512C22.7946 141.399 22.8502 140.073 23.0006 138.576C23.1265 137.323 23.3182 135.954 23.5227 134.495C23.5623 134.213 23.6024 133.927 23.6425 133.637C23.8899 131.856 24.1404 129.954 24.3025 127.98C24.5681 124.744 24.5965 121.31 23.9836 117.881C24.5524 119.456 25.2502 120.957 26.0268 122.388ZM27.5392 117.056C28.7225 120.331 30.4643 123.291 32.3121 125.96C33.4398 127.589 34.6076 129.111 35.7125 130.53C35.892 130.761 36.0697 130.988 36.2453 131.213C37.1519 132.375 38.0023 133.464 38.738 134.486C39.6164 135.707 40.3276 136.828 40.7739 137.856C41.2202 138.884 41.3974 139.81 41.221 140.646C41.0451 141.479 40.5144 142.24 39.5103 142.932C38.6518 143.523 37.4507 144.062 35.8398 144.55C36.636 144.225 37.2942 143.88 37.8275 143.513C38.8622 142.8 39.4314 141.999 39.6204 141.103C39.8088 140.211 39.6159 139.24 39.161 138.192C38.7061 137.145 37.985 136.01 37.1041 134.786C36.3658 133.76 35.5125 132.667 34.6059 131.506C34.4305 131.281 34.2531 131.054 34.0741 130.824C32.9695 129.405 31.8046 127.887 30.6803 126.263C29.747 124.915 28.8422 123.494 28.0238 121.998C27.9812 120.364 27.8348 118.709 27.5392 117.056ZM27.9818 125.273C28.0271 124.335 28.0471 123.385 28.0326 122.427C28.8059 123.809 29.6492 125.125 30.5159 126.377C31.6435 128.006 32.8113 129.527 33.9163 130.947C34.0957 131.177 34.2734 131.405 34.449 131.63C35.3556 132.791 36.206 133.88 36.9417 134.903C37.8201 136.124 38.5313 137.244 38.9776 138.272C39.424 139.3 39.6012 140.226 39.4247 141.062C39.2489 141.895 38.7182 142.656 37.714 143.348C36.8692 143.93 35.6926 144.461 34.1201 144.943C34.8986 144.623 35.5438 144.283 36.0682 143.922C37.1029 143.209 37.6721 142.408 37.8611 141.513C38.0495 140.62 37.8566 139.649 37.4018 138.602C36.9468 137.554 36.2257 136.42 35.3448 135.195C34.6065 134.169 33.7533 133.076 32.8467 131.915C32.6713 131.69 32.4938 131.463 32.3148 131.233C31.2102 129.814 30.0453 128.296 28.921 126.672C28.6039 126.214 28.2901 125.748 27.9818 125.273Z" stroke="white" stroke-width="0.2"/>
<path d="M19.2081 84.335C18.4296 84.6545 17.7844 84.9943 17.26 85.3557C16.2253 86.0688 15.6561 86.8693 15.4671 87.765C15.2786 88.6579 15.4716 89.6285 15.9264 90.676C16.3813 91.7238 17.1025 92.858 17.9834 94.0824C18.7217 95.1084 19.5749 96.2014 20.4815 97.3627C20.6569 97.5875 20.8344 97.8148 21.0134 98.0447C22.118 99.4633 23.2829 100.981 24.4072 102.605C25.3554 103.975 26.2741 105.42 27.1028 106.943C27.148 108.55 27.2944 110.179 27.5853 111.806C26.402 108.53 24.6602 105.57 22.8123 102.901C21.6847 101.272 20.5169 99.7502 19.4119 98.3311C19.2325 98.1007 19.0548 97.8731 18.8792 97.6481C17.9726 96.4867 17.1222 95.3974 16.3865 94.3749C15.508 93.154 14.7969 92.0335 14.3506 91.0057C13.9042 89.9776 13.727 89.0517 13.9035 88.2156C14.0793 87.3824 14.61 86.6217 15.6142 85.9297C16.459 85.3475 17.6356 84.8164 19.2081 84.335ZM17.3735 85.5204C18.232 84.9288 19.433 84.39 21.044 83.9024C20.2477 84.2266 19.5896 84.5718 19.0563 84.9393C18.0216 85.6523 17.4524 86.4529 17.2633 87.3486C17.0749 88.2414 17.2679 89.2121 17.7227 90.2596C18.1776 91.3074 18.8988 92.4416 19.7797 93.6659C20.5179 94.692 21.3712 95.785 22.2778 96.9464C22.4532 97.1711 22.6307 97.3984 22.8097 97.6283C23.9143 99.0469 25.0792 100.565 26.2034 102.189C26.5206 102.647 26.8344 103.114 27.1427 103.589C27.0961 104.551 27.0763 105.526 27.0931 106.51C26.3094 105.103 25.4525 103.764 24.5716 102.492C23.444 100.863 22.2762 99.3409 21.1712 97.9218C20.9918 97.6914 20.8141 97.4638 20.6385 97.2388C19.7318 96.0774 18.8815 94.9881 18.1458 93.9656C17.2673 92.7447 16.5562 91.6243 16.1099 90.5964C15.6635 89.5683 15.4863 88.6424 15.6628 87.8063C15.8386 86.9731 16.3693 86.2124 17.3735 85.5204ZM19.1698 85.104C20.0104 84.5246 21.1796 83.9959 22.7405 83.5164C23.6132 83.3916 24.3664 83.359 25.0146 83.4108C26.2302 83.5081 27.0702 83.9015 27.6391 84.5352C28.2099 85.171 28.5194 86.0615 28.6469 87.175C28.7743 88.2883 28.7187 89.6142 28.5684 91.1107C28.4425 92.3642 28.2507 93.7327 28.0462 95.1918C28.0066 95.4744 27.9665 95.7605 27.9264 96.0497C27.679 97.8312 27.4285 99.7329 27.2664 101.707C27.2246 102.217 27.1887 102.731 27.1602 103.249C26.8992 102.852 26.6346 102.46 26.3679 102.075C25.2403 100.446 24.0725 98.9245 22.9675 97.5054C22.7881 97.275 22.6103 97.0473 22.4347 96.8224C21.5281 95.661 20.6778 94.5717 19.942 93.5491C19.0636 92.3283 18.3524 91.2078 17.9062 90.18C17.4598 89.1519 17.2826 88.226 17.459 87.3899C17.6349 86.5567 18.1656 85.796 19.1698 85.104ZM25.0305 83.2115C24.6913 83.1844 24.3252 83.1798 23.9307 83.1986C25.0496 82.9998 25.9888 82.9388 26.7738 83.0016C27.9895 83.0988 28.8295 83.4922 29.3984 84.1259C29.9692 84.7617 30.2787 85.6522 30.4062 86.7657C30.5336 87.879 30.4779 89.2049 30.3276 90.7014C30.2017 91.9549 30.01 93.3234 29.8055 94.7825C29.7659 95.0651 29.7258 95.3512 29.6857 95.6404C29.4383 97.4219 29.1877 99.3236 29.0257 101.298C28.8994 102.836 28.8268 104.419 28.8511 106.025C28.3724 105.17 27.8669 104.339 27.3456 103.534C27.3758 102.925 27.4167 102.321 27.4657 101.724C27.6273 99.7551 27.8772 97.858 28.1245 96.0772C28.1646 95.7886 28.2046 95.503 28.2441 95.2206C28.4486 93.7616 28.641 92.3884 28.7673 91.1307C28.9181 89.6299 28.9755 88.2871 28.8456 87.1523C28.7157 86.0176 28.3975 85.0806 27.7879 84.4016C27.1764 83.7204 26.2831 83.3117 25.0305 83.2115ZM27.3297 103.879C27.862 104.711 28.3761 105.57 28.86 106.454C28.9025 108.088 29.0489 109.743 29.3445 111.396C28.7758 109.822 28.078 108.321 27.3014 106.889C27.2742 105.876 27.2872 104.871 27.3297 103.879ZM26.7898 82.8022C26.4494 82.775 26.0821 82.7705 25.686 82.7895C26.823 82.5849 27.7755 82.5216 28.5701 82.5851C29.7858 82.6824 30.6257 83.0758 31.1946 83.7095C31.7655 84.3453 32.075 85.2358 32.2024 86.3493C32.3299 87.4626 32.2742 88.7885 32.1239 90.285C31.998 91.5384 31.8063 92.9069 31.6018 94.366C31.5622 94.6486 31.5221 94.9347 31.4819 95.224C31.2345 97.0054 30.984 98.9071 30.822 100.882C30.5564 104.117 30.528 107.552 31.1408 110.98C30.5625 109.379 29.8509 107.854 29.0587 106.401C29.0158 104.674 29.0892 102.969 29.225 101.314C29.3866 99.3458 29.6364 97.4488 29.8838 95.6679C29.9238 95.3793 29.9638 95.0938 30.0034 94.8114C30.2079 93.3523 30.4003 91.9791 30.5266 90.7214C30.6774 89.2207 30.7348 87.8778 30.6049 86.743C30.475 85.6083 30.1568 84.6713 29.5472 83.9923C28.9356 83.3111 28.0424 82.9024 26.7898 82.8022ZM30.5437 115.872C31.122 117.472 31.8336 118.997 32.6259 120.45C32.6503 121.437 32.6369 122.416 32.5956 123.382C32.0489 122.527 31.5214 121.645 31.0261 120.735C30.981 119.127 30.8345 117.498 30.5437 115.872ZM32.6588 125.553C32.7007 125.044 32.7366 124.53 32.7651 124.011C33.026 124.409 33.2906 124.8 33.5574 125.186C34.685 126.815 35.8528 128.336 36.9578 129.755C37.1372 129.986 37.3149 130.213 37.4905 130.438C38.3971 131.6 39.2475 132.689 39.9832 133.712C40.8616 134.932 41.5728 136.053 42.0191 137.081C42.4655 138.109 42.6427 139.035 42.4662 139.871C42.2904 140.704 41.7597 141.465 40.7555 142.157C39.9148 142.736 38.7456 143.265 37.1847 143.744C36.312 143.869 35.5588 143.902 34.9107 143.85C33.695 143.753 32.8551 143.359 32.2862 142.726C31.7153 142.09 31.4058 141.199 31.2784 140.086C31.1509 138.972 31.2066 137.646 31.3569 136.15C31.4828 134.897 31.6746 133.528 31.879 132.069C31.9186 131.786 31.9587 131.5 31.9989 131.211C32.2463 129.43 32.4968 127.528 32.6588 125.553ZM32.5797 123.727C32.5494 124.336 32.5085 124.94 32.4595 125.537C32.2979 127.506 32.0481 129.403 31.8008 131.184C31.7607 131.472 31.7207 131.758 31.6811 132.04C31.4766 133.499 31.2842 134.872 31.1579 136.13C31.0072 137.631 30.9498 138.974 31.0797 140.108C31.2095 141.243 31.5278 142.18 32.1373 142.859C32.7489 143.54 33.6421 143.949 34.8947 144.049C35.2351 144.076 35.6025 144.081 35.9985 144.062C34.8616 144.267 33.909 144.33 33.1144 144.266C31.8987 144.169 31.0588 143.776 30.4899 143.142C29.919 142.506 29.6095 141.616 29.4821 140.502C29.3547 139.389 29.4103 138.063 29.5606 136.566C29.6865 135.313 29.8783 133.944 30.0827 132.485C30.1223 132.203 30.1624 131.917 30.2026 131.627C30.45 129.846 30.7005 127.944 30.8626 125.97C30.9908 124.407 31.0637 122.799 31.0359 121.167C31.5259 122.047 32.0445 122.9 32.5797 123.727ZM30.8275 120.788C30.8746 122.542 30.8011 124.273 30.6632 125.953C30.5017 127.922 30.2518 129.819 30.0045 131.6C29.9644 131.889 29.9244 132.174 29.8848 132.456C29.6804 133.916 29.4879 135.289 29.3616 136.546C29.2109 138.047 29.1535 139.39 29.2834 140.525C29.4133 141.659 29.7315 142.597 30.3411 143.276C30.9526 143.957 31.8458 144.365 33.0985 144.466C33.4377 144.493 33.8037 144.497 34.1982 144.479C33.0794 144.677 32.1401 144.738 31.3551 144.676C30.1395 144.578 29.2995 144.185 28.7306 143.551C28.1598 142.915 27.8503 142.025 27.7228 140.911C27.5954 139.798 27.651 138.472 27.8013 136.976C27.9272 135.722 28.119 134.354 28.3235 132.895C28.3631 132.612 28.4031 132.326 28.4433 132.037C28.6907 130.255 28.9412 128.354 29.1033 126.379C29.3689 123.143 29.3973 119.709 28.7844 116.281C29.3532 117.855 30.051 119.357 30.8275 120.788ZM32.34 115.455C33.5233 118.73 35.2651 121.69 37.1129 124.36C38.2405 125.989 39.4083 127.51 40.5133 128.93C40.6927 129.16 40.8705 129.388 41.0461 129.613C41.9527 130.774 42.803 131.863 43.5388 132.886C44.4172 134.107 45.1283 135.227 45.5746 136.255C46.021 137.283 46.1982 138.209 46.0218 139.045C45.8459 139.878 45.3152 140.639 44.311 141.331C43.4526 141.923 42.2515 142.461 40.6406 142.949C41.4368 142.625 42.095 142.28 42.6282 141.912C43.663 141.199 44.2322 140.398 44.4212 139.503C44.6096 138.61 44.4167 137.639 43.9618 136.592C43.5069 135.544 42.7858 134.41 41.9048 133.185C41.1666 132.159 40.3133 131.066 39.4067 129.905C39.2313 129.68 39.0538 129.453 38.8749 129.223C37.7702 127.805 36.6053 126.287 35.4811 124.662C34.5478 123.314 33.643 121.894 32.8246 120.397C32.782 118.764 32.6356 117.109 32.34 115.455ZM32.7826 123.672C32.8279 122.735 32.8479 121.785 32.8334 120.826C33.6067 122.208 34.45 123.524 35.3166 124.776C36.4443 126.405 37.6121 127.927 38.7171 129.346C38.8965 129.576 39.0742 129.804 39.2498 130.029C40.1564 131.19 41.0067 132.28 41.7425 133.302C42.6209 134.523 43.3321 135.644 43.7784 136.671C44.2247 137.7 44.4019 138.625 44.2255 139.462C44.0496 140.295 43.5189 141.055 42.5148 141.747C41.6699 142.33 40.4933 142.861 38.9208 143.342C39.6993 143.023 40.3445 142.683 40.869 142.321C41.9037 141.608 42.4729 140.808 42.6619 139.912C42.8503 139.019 42.6574 138.049 42.2025 137.001C41.7476 135.953 41.0265 134.819 40.1456 133.595C39.4073 132.569 38.5541 131.476 37.6475 130.314C37.472 130.09 37.2946 129.862 37.1156 129.632C36.011 128.214 34.8461 126.696 33.7218 125.072C33.4047 124.614 33.0908 124.147 32.7826 123.672Z" stroke="white" stroke-width="0.2"/>
</g>
<path d="M15.1753 77.0098L15.1753 75.7466L23.3892 75.7466L23.3892 71.0239L24.5 71.0239L24.5 77.0098L15.1753 77.0098ZM17.5493 67.1259C17.5493 66.6435 17.6636 66.1759 17.8921 65.7231C18.1164 65.2703 18.4084 64.9254 18.7681 64.6884C19.1108 64.4599 19.5107 64.3076 19.9678 64.2314C20.2809 64.1637 20.7803 64.1298 21.4658 64.1298L21.4658 69.1127C22.1556 69.0916 22.71 68.9287 23.1289 68.624C23.5436 68.3193 23.751 67.8474 23.751 67.2084C23.751 66.6118 23.5542 66.1357 23.1606 65.7802C22.9321 65.5771 22.6676 65.4332 22.3672 65.3486L22.3672 64.225C22.6169 64.2547 22.8962 64.3541 23.2051 64.5234C23.5098 64.6884 23.7594 64.8746 23.9541 65.082C24.2926 65.429 24.5212 65.8585 24.6396 66.3706C24.7074 66.6456 24.7412 66.9567 24.7412 67.3037C24.7412 68.15 24.4344 68.8673 23.8208 69.4555C23.203 70.0437 22.3397 70.3378 21.231 70.3378C20.1392 70.3378 19.2526 70.0416 18.5713 69.4492C17.89 68.8567 17.5493 68.0823 17.5493 67.1259ZM20.5581 65.3041C20.063 65.3507 19.6673 65.4586 19.3711 65.6279C18.821 65.941 18.5459 66.4637 18.5459 67.1958C18.5459 67.7205 18.7363 68.1606 19.1172 68.5161C19.4938 68.8715 19.9741 69.0598 20.5581 69.081L20.5581 65.3041ZM15.8037 62.5233L15.8037 61.3681L17.7017 61.3681L17.7017 60.2826L18.6348 60.2826L18.6348 61.3681L23.0718 61.3681C23.3088 61.3681 23.4674 61.2877 23.5479 61.1269C23.5944 61.038 23.6177 60.8899 23.6177 60.6825C23.6177 60.6275 23.6177 60.5683 23.6177 60.5048C23.6134 60.4413 23.6071 60.3672 23.5986 60.2826L24.5 60.2826C24.5381 60.4138 24.5656 60.5513 24.5825 60.6952C24.5994 60.8349 24.6079 60.9872 24.6079 61.1522C24.6079 61.6854 24.4725 62.0473 24.2017 62.2377C23.9266 62.4281 23.5711 62.5233 23.1353 62.5233L18.6348 62.5233L18.6348 63.4437L17.7017 63.4437L17.7017 62.5233L15.8037 62.5233ZM17.8857 58.9237C17.8477 58.6909 17.7165 58.5153 17.4922 58.3968C17.2679 58.2741 17.0098 58.2127 16.7178 58.2127C16.6882 58.2127 16.6628 58.2149 16.6416 58.2191C16.6162 58.2191 16.5887 58.2233 16.5591 58.2318L16.5591 58.9237L15.1753 58.9237L15.1753 57.5653L16.4512 57.5653C16.9928 57.5653 17.4541 57.6774 17.835 57.9017C18.2116 58.126 18.4274 58.4666 18.4824 58.9237L17.8857 58.9237ZM22.3672 55.8509C22.748 55.817 23.04 55.7218 23.2432 55.5652C23.6113 55.2775 23.7954 54.7781 23.7954 54.0672C23.7954 53.644 23.7044 53.2716 23.5225 52.95C23.3363 52.6284 23.0506 52.4676 22.6655 52.4676C22.3735 52.4676 22.1514 52.5966 21.999 52.8548C21.9059 53.0198 21.798 53.3457 21.6753 53.8323L21.4468 54.74C21.3029 55.3198 21.1421 55.7472 20.9644 56.0223C20.6554 56.5131 20.228 56.7586 19.6821 56.7586C19.0389 56.7586 18.5184 56.528 18.1206 56.0667C17.7228 55.6012 17.5239 54.977 17.5239 54.1941C17.5239 53.17 17.8244 52.4316 18.4253 51.9788C18.8062 51.6953 19.2166 51.5577 19.6567 51.5662L19.6567 52.6453C19.3986 52.6665 19.1637 52.7574 18.9521 52.9183C18.6517 53.1806 18.5015 53.6355 18.5015 54.283C18.5015 54.7146 18.584 55.0426 18.749 55.2669C18.9141 55.4869 19.132 55.597 19.4028 55.597C19.6991 55.597 19.936 55.451 20.1138 55.159C20.2196 54.9897 20.3127 54.74 20.3931 54.41L20.5771 53.6546C20.776 52.8336 20.9686 52.2835 21.1548 52.0042C21.4468 51.5599 21.9059 51.3377 22.5322 51.3377C23.1374 51.3377 23.66 51.5683 24.1001 52.0296C24.5402 52.4866 24.7603 53.1849 24.7603 54.1243C24.7603 55.1357 24.5317 55.853 24.0747 56.2762C23.6134 56.6951 23.0443 56.9194 22.3672 56.949L22.3672 55.8509ZM14.9214 42.3928C14.9214 41.2121 15.2324 40.2959 15.8545 39.6442C16.4766 38.9925 17.1833 38.6307 17.9746 38.5588L17.9746 39.7902C17.3737 39.9299 16.8976 40.2092 16.5464 40.6281C16.1951 41.0428 16.0195 41.6268 16.0195 42.3801C16.0195 43.2984 16.3433 44.041 16.9907 44.6081C17.634 45.1709 18.6221 45.4523 19.9551 45.4523C21.0469 45.4523 21.9334 45.1984 22.6147 44.6906C23.2918 44.1786 23.6304 43.4169 23.6304 42.4055C23.6304 41.4745 23.2728 40.7657 22.5576 40.279C22.181 40.0209 21.6859 39.8283 21.0723 39.7014L21.0723 38.4699C22.054 38.5799 22.8771 38.9439 23.5415 39.5617C24.3413 40.3023 24.7412 41.301 24.7412 42.5578C24.7412 43.6411 24.4132 44.551 23.7573 45.2873C22.8898 46.2564 21.5505 46.7409 19.7393 46.7409C18.3639 46.7409 17.2362 46.377 16.356 45.6491C15.3996 44.862 14.9214 43.7766 14.9214 42.3928ZM17.7017 37.0792L17.7017 35.9938L18.876 35.9938C18.6475 35.9049 18.3703 35.687 18.0444 35.34C17.7144 34.993 17.5493 34.5931 17.5493 34.1403C17.5493 34.1191 17.5514 34.0831 17.5557 34.0324C17.5599 33.9816 17.5684 33.8948 17.5811 33.7721L18.7871 33.7721C18.7744 33.8398 18.7659 33.9033 18.7617 33.9625C18.7575 34.0176 18.7554 34.0789 18.7554 34.1466C18.7554 34.7221 18.9416 35.1644 19.314 35.4733C19.6821 35.7822 20.1074 35.9367 20.5898 35.9367L24.5 35.9367L24.5 37.0792L17.7017 37.0792ZM17.5493 29.982C17.5493 29.4996 17.6636 29.032 17.8921 28.5792C18.1164 28.1264 18.4084 27.7815 18.7681 27.5445C19.1108 27.316 19.5107 27.1637 19.9678 27.0875C20.2809 27.0198 20.7803 26.9859 21.4658 26.9859L21.4658 31.9688C22.1556 31.9477 22.71 31.7848 23.1289 31.4801C23.5436 31.1754 23.751 30.7035 23.751 30.0645C23.751 29.4679 23.5542 28.9918 23.1606 28.6363C22.9321 28.4332 22.6676 28.2893 22.3672 28.2047L22.3672 27.0811C22.6169 27.1108 22.8962 27.2102 23.2051 27.3795C23.5098 27.5445 23.7594 27.7307 23.9541 27.9381C24.2926 28.2851 24.5212 28.7146 24.6396 29.2266C24.7074 29.5017 24.7412 29.8127 24.7412 30.1598C24.7412 31.0061 24.4344 31.7234 23.8208 32.3116C23.203 32.8998 22.3397 33.1939 21.231 33.1939C20.1392 33.1939 19.2526 32.8977 18.5713 32.3053C17.89 31.7128 17.5493 30.9384 17.5493 29.982ZM20.5581 28.1602C20.063 28.2068 19.6673 28.3147 19.3711 28.484C18.821 28.7971 18.5459 29.3197 18.5459 30.0518C18.5459 30.5766 18.7363 31.0167 19.1172 31.3722C19.4938 31.7276 19.9741 31.9159 20.5581 31.9371L20.5581 28.1602ZM22.6909 24.732C23.021 24.732 23.2812 24.6114 23.4717 24.3702C23.6621 24.1289 23.7573 23.8433 23.7573 23.5132C23.7573 23.1112 23.6642 22.7219 23.478 22.3453C23.1691 21.7105 22.6634 21.3931 21.9609 21.3931L21.0405 21.3931C21.1294 21.5328 21.2034 21.7126 21.2627 21.9327C21.3219 22.1527 21.3643 22.3685 21.3896 22.5801L21.4785 23.272C21.5335 23.6867 21.6203 23.9978 21.7388 24.2051C21.9377 24.5564 22.255 24.732 22.6909 24.732ZM20.3804 21.9644C20.3465 21.702 20.2365 21.5264 20.0503 21.4375C19.9487 21.3868 19.8027 21.3614 19.6123 21.3614C19.223 21.3614 18.9416 21.501 18.7681 21.7803C18.5903 22.0554 18.5015 22.451 18.5015 22.9673C18.5015 23.564 18.6623 23.9872 18.9839 24.2369C19.1616 24.3765 19.4261 24.4675 19.7773 24.5098L19.7773 25.5762C18.9395 25.5551 18.3576 25.2842 18.0317 24.7637C17.7017 24.239 17.5366 23.6317 17.5366 22.9419C17.5366 22.1421 17.689 21.4926 17.9936 20.9932C18.2983 20.4981 18.7723 20.2505 19.4155 20.2505L23.332 20.2505C23.4505 20.2505 23.5457 20.2273 23.6177 20.1807C23.6896 20.1299 23.7256 20.0262 23.7256 19.8697C23.7256 19.8189 23.7235 19.7618 23.7192 19.6983C23.7108 19.6348 23.7002 19.5671 23.6875 19.4952L24.5317 19.4952C24.5825 19.6729 24.6143 19.8083 24.627 19.9014C24.6396 19.9945 24.646 20.1215 24.646 20.2823C24.646 20.6758 24.5063 20.9615 24.227 21.1392C24.0789 21.2323 23.8695 21.2979 23.5986 21.336C23.9033 21.5687 24.1678 21.903 24.3921 22.3389C24.6164 22.7748 24.7285 23.2551 24.7285 23.7798C24.7285 24.4104 24.5381 24.9266 24.1572 25.3287C23.7721 25.7264 23.2918 25.9253 22.7163 25.9253C22.0858 25.9253 21.597 25.7286 21.25 25.335C20.903 24.9414 20.6893 24.4252 20.6089 23.7862L20.3804 21.9644ZM15.8037 18.1743L15.8037 17.019L17.7017 17.019L17.7017 15.9336L18.6348 15.9336L18.6348 17.019L23.0718 17.019C23.3088 17.019 23.4674 16.9386 23.5478 16.7778C23.5944 16.689 23.6177 16.5408 23.6177 16.3335C23.6177 16.2785 23.6177 16.2192 23.6177 16.1557C23.6134 16.0923 23.6071 16.0182 23.5986 15.9336L24.5 15.9336C24.5381 16.0648 24.5656 16.2023 24.5825 16.3462C24.5994 16.4858 24.6079 16.6382 24.6079 16.8032C24.6079 17.3364 24.4725 17.6982 24.2017 17.8887C23.9266 18.0791 23.5711 18.1743 23.1353 18.1743L18.6348 18.1743L18.6348 19.0947L17.7017 19.0947L17.7017 18.1743L15.8037 18.1743ZM17.5493 11.9848C17.5493 11.5024 17.6636 11.0348 17.8921 10.582C18.1164 10.1292 18.4084 9.78428 18.7681 9.5473C19.1108 9.31879 19.5107 9.16644 19.9678 9.09027C20.2809 9.02256 20.7803 8.98871 21.4658 8.98871L21.4658 13.9716C22.1556 13.9505 22.71 13.7875 23.1289 13.4828C23.5436 13.1782 23.751 12.7063 23.751 12.0673C23.751 11.4706 23.5542 10.9946 23.1606 10.6391C22.9321 10.436 22.6676 10.2921 22.3672 10.2075L22.3672 9.08392C22.6169 9.11355 22.8962 9.21299 23.2051 9.38226C23.5098 9.5473 23.7594 9.7335 23.9541 9.94086C24.2926 10.2879 24.5212 10.7174 24.6396 11.2294C24.7074 11.5045 24.7412 11.8155 24.7412 12.1625C24.7412 13.0089 24.4344 13.7262 23.8208 14.3144C23.203 14.9026 22.3397 15.1967 21.231 15.1967C20.1392 15.1967 19.2526 14.9005 18.5713 14.308C17.89 13.7156 17.5493 12.9412 17.5493 11.9848ZM20.5581 10.163C20.063 10.2096 19.6673 10.3175 19.3711 10.4868C18.821 10.7999 18.5459 11.3225 18.5459 12.0546C18.5459 12.5794 18.7363 13.0195 19.1172 13.3749C19.4938 13.7304 19.9741 13.9187 20.5581 13.9399L20.5581 10.163Z" fill="#F3F4F7"/>
</svg>
